<?xml version="1.0" encoding="UTF-8"?><svg id="Illustration" xmlns="http://www.w3.org/2000/svg" xmlns:xlink="http://www.w3.org/1999/xlink" viewBox="0 0 2266.4 1443.81"><defs><linearGradient id="linear-gradient" x1="-177.28" y1="1723.98" x2="1945.36" y2="182.54" gradientTransform="translate(50.75 -195.57) rotate(-.7) scale(1.07 .93)" gradientUnits="userSpaceOnUse"><stop offset="0" stop-color="#dae3fe"/><stop offset="1" stop-color="#e9effd"/></linearGradient><linearGradient id="linear-gradient-2" x1="1998.86" y1="875.46" x2="2224.69" y2="875.46" gradientTransform="matrix(1, 0, 0, 1, 0, 0)" xlink:href="#linear-gradient"/><linearGradient id="linear-gradient-3" x1="1935.01" y1="228.98" x2="726.54" y2="1149.12" gradientUnits="userSpaceOnUse"><stop offset="0" stop-color="#09005d"/><stop offset="1" stop-color="#1a0f91"/></linearGradient><linearGradient id="linear-gradient-4" x1="1475.43" y1="491.2" x2="487.43" y2="1755.2" gradientUnits="userSpaceOnUse"><stop offset="0" stop-color="#4042e2"/><stop offset="1" stop-color="#4f52ff"/></linearGradient><linearGradient id="linear-gradient-5" x1="2016.45" y1="-585.76" x2="1488.45" y2="382.24" xlink:href="#linear-gradient-4"/><linearGradient id="linear-gradient-6" x1="1576.33" y1="715.94" x2="2278.41" y2="-229.16" gradientUnits="userSpaceOnUse"><stop offset="0" stop-color="#fe7062"/><stop offset="1" stop-color="#ff928e"/></linearGradient><linearGradient id="linear-gradient-7" x1="1154.94" y1="1400.26" x2="2229.05" y2="209.14" xlink:href="#linear-gradient-6"/><linearGradient id="linear-gradient-8" x1="1153.79" y1="-95.81" x2="601.73" y2="753.28" xlink:href="#linear-gradient-6"/><linearGradient id="linear-gradient-9" x1="1177.91" y1="-80.12" x2="625.86" y2="768.96" xlink:href="#linear-gradient-6"/><linearGradient id="linear-gradient-10" x1="1198.16" y1="-66.96" x2="646.1" y2="782.12" xlink:href="#linear-gradient-6"/><linearGradient id="linear-gradient-11" x1="1224.62" y1="-49.75" x2="672.57" y2="799.33" xlink:href="#linear-gradient-6"/><linearGradient id="linear-gradient-12" x1="1255.82" y1="-29.47" x2="703.76" y2="819.61" xlink:href="#linear-gradient-6"/><linearGradient id="linear-gradient-13" x1="1497.82" y1="-116.42" x2="1305.8" y2="318.62" xlink:href="#linear-gradient-6"/><linearGradient id="linear-gradient-14" x1="1575.72" y1="-82.04" x2="1383.7" y2="353" xlink:href="#linear-gradient-6"/><linearGradient id="linear-gradient-15" x1="1606.76" y1="-68.34" x2="1414.74" y2="366.7" xlink:href="#linear-gradient-6"/><linearGradient id="linear-gradient-16" x1="1676.41" y1="-37.6" x2="1484.39" y2="397.44" xlink:href="#linear-gradient-6"/><linearGradient id="linear-gradient-17" x1="1709.39" y1="-23.05" x2="1517.37" y2="412" xlink:href="#linear-gradient-6"/><linearGradient id="linear-gradient-18" x1="1275.22" y1="-16.86" x2="723.16" y2="832.23" xlink:href="#linear-gradient-6"/><linearGradient id="linear-gradient-19" x1="1299.34" y1="-1.17" x2="747.29" y2="847.91" xlink:href="#linear-gradient-6"/><linearGradient id="linear-gradient-20" x1="1319.59" y1="11.99" x2="767.53" y2="861.08" xlink:href="#linear-gradient-6"/><linearGradient id="linear-gradient-21" x1="1345.99" y1="29.16" x2="793.94" y2="878.25" xlink:href="#linear-gradient-6"/><linearGradient id="linear-gradient-22" x1="1374.29" y1="47.56" x2="822.24" y2="896.64" xlink:href="#linear-gradient-6"/><linearGradient id="linear-gradient-23" x1="1390.5" y1="58.1" x2="838.44" y2="907.18" xlink:href="#linear-gradient-6"/><linearGradient id="linear-gradient-24" x1="1420.42" y1="77.55" x2="868.36" y2="926.63" xlink:href="#linear-gradient-6"/><linearGradient id="linear-gradient-25" x1="1440.38" y1="90.53" x2="888.32" y2="939.62" xlink:href="#linear-gradient-6"/><linearGradient id="linear-gradient-26" x1="1466.82" y1="107.72" x2="914.77" y2="956.8" xlink:href="#linear-gradient-6"/><linearGradient id="linear-gradient-27" x1="1497.25" y1="127.5" x2="945.19" y2="976.59" xlink:href="#linear-gradient-6"/><linearGradient id="linear-gradient-28" x1="-316.01" y1="2274.92" x2="279.99" y2="1178.92" xlink:href="#linear-gradient-3"/><linearGradient id="linear-gradient-29" x1="457.04" y1="606.8" x2="410.64" y2="1346.41" xlink:href="#linear-gradient-3"/><linearGradient id="linear-gradient-30" x1="306.65" y1="690.51" x2="466.39" y2="690.51" gradientTransform="matrix(1, 0, 0, 1, 0, 0)" xlink:href="#linear-gradient"/><linearGradient id="linear-gradient-31" x1="487.63" y1="918.88" x2="589.21" y2="918.88" gradientTransform="matrix(1, 0, 0, 1, 0, 0)" xlink:href="#linear-gradient"/><linearGradient id="linear-gradient-32" x1="475.38" y1="870.79" x2="596.04" y2="870.79" xlink:href="#linear-gradient-4"/><linearGradient id="linear-gradient-33" x1="535.56" y1="859.77" x2="533.72" y2="889.19" xlink:href="#linear-gradient-3"/><linearGradient id="linear-gradient-34" x1="543.68" y1="888.12" x2="431.02" y2="1025.45" xlink:href="#linear-gradient-6"/><linearGradient id="linear-gradient-35" x1="552.72" y1="895.53" x2="440.05" y2="1032.87" xlink:href="#linear-gradient-6"/><linearGradient id="linear-gradient-36" x1="559.68" y1="901.24" x2="447.01" y2="1038.58" xlink:href="#linear-gradient-6"/><linearGradient id="linear-gradient-37" x1="569.18" y1="909.03" x2="456.51" y2="1046.37" xlink:href="#linear-gradient-6"/><linearGradient id="linear-gradient-38" x1="579.26" y1="917.31" x2="466.6" y2="1054.64" xlink:href="#linear-gradient-6"/><linearGradient id="linear-gradient-39" x1="419.28" y1="646.15" x2="299.95" y2="767.48" xlink:href="#linear-gradient-6"/><linearGradient id="linear-gradient-40" x1="434.48" y1="661.1" x2="315.15" y2="782.43" xlink:href="#linear-gradient-6"/><linearGradient id="linear-gradient-41" x1="6438.26" y1="843.32" x2="6298.41" y2="1015.25" gradientTransform="translate(7030.97 616.56) rotate(-172.84) scale(1 -1)" gradientUnits="userSpaceOnUse"><stop offset="0" stop-color="#ff928e"/><stop offset="1" stop-color="#feb3b1"/></linearGradient><linearGradient id="linear-gradient-42" x1="703.01" y1="634.46" x2="765.67" y2="792.46" xlink:href="#linear-gradient-3"/><linearGradient id="linear-gradient-43" x1="775.82" y1="779.83" x2="547.15" y2="974.49" xlink:href="#linear-gradient-6"/><linearGradient id="linear-gradient-44" x1="695.56" y1="689.32" x2="708.23" y2="789.99" gradientTransform="matrix(1, 0, 0, 1, 0, 0)" xlink:href="#linear-gradient-41"/><linearGradient id="linear-gradient-45" x1="753.12" y1="685.06" x2="670.12" y2="686.06" gradientTransform="matrix(1, 0, 0, 1, 0, 0)" xlink:href="#linear-gradient-41"/><linearGradient id="linear-gradient-46" x1="699.87" y1="635.7" x2="762.54" y2="793.7" xlink:href="#linear-gradient-3"/><linearGradient id="linear-gradient-47" x1="753.2" y1="691.55" x2="670.2" y2="692.55" gradientTransform="matrix(1, 0, 0, 1, 0, 0)" xlink:href="#linear-gradient-41"/><linearGradient id="linear-gradient-48" x1="744.64" y1="1133.29" x2="626.64" y2="1245.95" gradientTransform="matrix(1, 0, 0, 1, 0, 0)" xlink:href="#linear-gradient-41"/><linearGradient id="linear-gradient-49" x1="6115.87" y1="1292.51" x2="6164.59" y2="1292.51" gradientTransform="translate(6898.5 50.08) rotate(-179.46) scale(1 -1)" xlink:href="#linear-gradient-3"/><linearGradient id="linear-gradient-50" x1="834.01" y1="1112.76" x2="756.67" y2="1158.09" gradientTransform="matrix(1, 0, 0, 1, 0, 0)" xlink:href="#linear-gradient-41"/><linearGradient id="linear-gradient-51" x1="6161.04" y1="1301.31" x2="6219.12" y2="1301.31" gradientTransform="translate(6898.5 50.08) rotate(-179.46) scale(1 -1)" xlink:href="#linear-gradient-3"/><linearGradient id="linear-gradient-52" x1="603.05" y1="1084.89" x2="186" y2="1405.93" xlink:href="#linear-gradient-6"/><linearGradient id="linear-gradient-53" x1="877.17" y1="769.96" x2="783.17" y2="823.96" gradientTransform="matrix(1, 0, 0, 1, 0, 0)" xlink:href="#linear-gradient-41"/><linearGradient id="linear-gradient-54" x1="2104.33" y1="662.59" x2="1922.33" y2="922.6" xlink:href="#linear-gradient-6"/><linearGradient id="linear-gradient-55" x1="1546.91" y1="949.6" x2="1624.2" y2="949.6" gradientTransform="matrix(1, 0, 0, 1, 0, 0)" xlink:href="#linear-gradient"/><linearGradient id="linear-gradient-56" x1="1503.04" y1="949.6" x2="1528.34" y2="949.6" gradientTransform="matrix(1, 0, 0, 1, 0, 0)" xlink:href="#linear-gradient"/><linearGradient id="linear-gradient-57" x1="1595.56" y1="964.56" x2="1626.69" y2="964.56" gradientTransform="matrix(1, 0, 0, 1, 0, 0)" xlink:href="#linear-gradient"/><linearGradient id="linear-gradient-58" x1="1505.53" y1="964.56" x2="1558.22" y2="964.56" gradientTransform="matrix(1, 0, 0, 1, 0, 0)" xlink:href="#linear-gradient"/><linearGradient id="linear-gradient-59" x1="1552.03" y1="979.53" x2="1629.18" y2="979.53" gradientTransform="matrix(1, 0, 0, 1, 0, 0)" xlink:href="#linear-gradient"/><linearGradient id="linear-gradient-60" x1="1508.02" y1="979.53" x2="1536.93" y2="979.53" gradientTransform="matrix(1, 0, 0, 1, 0, 0)" xlink:href="#linear-gradient"/><linearGradient id="linear-gradient-61" x1="-490.64" y1="1351.43" x2="-513.79" y2="1396.96" gradientTransform="translate(1307.77) rotate(-180) scale(1 -1)" xlink:href="#linear-gradient-3"/><linearGradient id="linear-gradient-62" x1="-534.66" y1="1369.55" x2="-511.6" y2="1369.55" gradientTransform="translate(1307.77) rotate(-180) scale(1 -1)" xlink:href="#linear-gradient-41"/><linearGradient id="linear-gradient-63" x1="-566.58" y1="1308.53" x2="-468.57" y2="1171.16" gradientTransform="translate(1307.77) rotate(-180) scale(1 -1)" gradientUnits="userSpaceOnUse"><stop offset="0" stop-color="#2b3582"/><stop offset=".23" stop-color="#242a70"/><stop offset=".73" stop-color="#19154e"/><stop offset="1" stop-color="#150e42"/></linearGradient><linearGradient id="linear-gradient-64" x1="-504.07" y1="1397.47" x2="-584.33" y2="1502.42" gradientTransform="translate(1307.77) rotate(-180) scale(1 -1)" xlink:href="#linear-gradient-3"/><linearGradient id="linear-gradient-65" x1="1813.93" y1="1447.66" x2="1849.93" y2="1296.32" xlink:href="#linear-gradient-4"/><linearGradient id="linear-gradient-66" x1="-551.34" y1="1390.83" x2="-529.69" y2="1390.83" gradientTransform="translate(1307.77) rotate(-180) scale(1 -1)" xlink:href="#linear-gradient-41"/><linearGradient id="linear-gradient-67" x1="-601.9" y1="1376.98" x2="-596.5" y2="1193.3" gradientTransform="translate(1307.77) rotate(-180) scale(1 -1)" xlink:href="#linear-gradient-3"/><linearGradient id="linear-gradient-68" x1="1846.95" y1="1080.35" x2="1781.29" y2="1209.01" gradientUnits="userSpaceOnUse"><stop offset="0" stop-color="#e1473d"/><stop offset="1" stop-color="#e9605a"/></linearGradient><linearGradient id="linear-gradient-69" x1="1793.81" y1="1197.89" x2="1754.81" y2="1146.89" gradientTransform="matrix(1, 0, 0, 1, 0, 0)" xlink:href="#linear-gradient-41"/><linearGradient id="linear-gradient-70" x1="1815.17" y1="1063.17" x2="2060.17" y2="1184.17" xlink:href="#linear-gradient-6"/><linearGradient id="linear-gradient-71" x1="1817.16" y1="987.38" x2="1876.16" y2="1091.38" gradientTransform="matrix(1, 0, 0, 1, 0, 0)" xlink:href="#linear-gradient-41"/><linearGradient id="linear-gradient-72" x1="1830.88" y1="1031.35" x2="2075.88" y2="1152.35" xlink:href="#linear-gradient-6"/><linearGradient id="linear-gradient-73" x1="1972.67" y1="981.05" x2="1923.67" y2="1126.05" xlink:href="#linear-gradient-68"/><linearGradient id="linear-gradient-74" x1="1762.12" y1="1173.88" x2="1913.12" y2="1149.88" gradientTransform="matrix(1, 0, 0, 1, 0, 0)" xlink:href="#linear-gradient-41"/><linearGradient id="linear-gradient-75" x1="1828.2" y1="954.08" x2="1804.2" y2="1030.08" gradientTransform="matrix(1, 0, 0, 1, 0, 0)" xlink:href="#linear-gradient-41"/><linearGradient id="linear-gradient-76" x1="-156.14" y1="31.49" x2="-100.18" y2="103.53" gradientTransform="translate(1667.23 978.96) rotate(157.22) scale(1 -1)" xlink:href="#linear-gradient-3"/><linearGradient id="linear-gradient-77" x1="1848.21" y1="960.4" x2="1824.21" y2="1036.4" gradientTransform="matrix(1, 0, 0, 1, 0, 0)" xlink:href="#linear-gradient-41"/><linearGradient id="linear-gradient-78" x1="12706.99" y1="1860.19" x2="12608.77" y2="1887.11" gradientTransform="translate(-10909.68 -92.07) rotate(-2.83)" xlink:href="#linear-gradient-3"/><linearGradient id="linear-gradient-79" x1="1635.57" y1="1181.15" x2="1740.57" y2="1078.15" xlink:href="#linear-gradient-3"/><linearGradient id="linear-gradient-80" x1="1552.41" y1="1252.66" x2="1387.08" y2="1483.33" gradientUnits="userSpaceOnUse"><stop offset="0" stop-color="#a22b25"/><stop offset="1" stop-color="#c0423c"/></linearGradient><linearGradient id="linear-gradient-81" x1="-1039.72" y1="1358.64" x2="-1056.39" y2="1575.31" gradientTransform="translate(436.04) rotate(-180) scale(1 -1)" xlink:href="#linear-gradient-4"/><linearGradient id="linear-gradient-82" x1="1615.15" y1="1203.65" x2="1559.15" y2="1311.65" xlink:href="#linear-gradient-80"/><linearGradient id="linear-gradient-83" x1="1529.09" y1="1263.82" x2="1349.75" y2="1261.15" xlink:href="#linear-gradient-3"/><linearGradient id="linear-gradient-84" x1="-1145.32" y1="1350.52" x2="-1161.99" y2="1567.18" gradientTransform="translate(436.04) rotate(-180) scale(1 -1)" xlink:href="#linear-gradient-4"/><linearGradient id="linear-gradient-85" x1="1492.75" y1="994.85" x2="1303.82" y2="1221.22" xlink:href="#linear-gradient-3"/><linearGradient id="linear-gradient-86" x1="1442.1" y1="1143.59" x2="1239.43" y2="1297.59" xlink:href="#linear-gradient-6"/><linearGradient id="linear-gradient-87" x1="1450.72" y1="1048.44" x2="1430.39" y2="1125.11" xlink:href="#linear-gradient-80"/><linearGradient id="linear-gradient-88" x1="1414.69" y1="1005.36" x2="1462.35" y2="1070.69" xlink:href="#linear-gradient-80"/><linearGradient id="linear-gradient-89" x1="1470.62" y1="976.38" x2="1281.68" y2="1202.74" xlink:href="#linear-gradient-3"/><linearGradient id="linear-gradient-90" x1="1400.9" y1="1015.42" x2="1448.57" y2="1080.75" xlink:href="#linear-gradient-80"/><linearGradient id="linear-gradient-91" x1="-953.34" y1="1215.27" x2="-805.22" y2="1215.27" gradientTransform="translate(436.04) rotate(-180) scale(1 -1)" xlink:href="#linear-gradient-80"/><linearGradient id="linear-gradient-92" x1="323" y1="1415.26" x2="354.33" y2="1305.26" xlink:href="#linear-gradient-4"/><linearGradient id="linear-gradient-93" x1="5528" y1="1252.95" x2="5506.51" y2="1401.42" gradientTransform="translate(-5180.16)" xlink:href="#linear-gradient-3"/><linearGradient id="linear-gradient-94" x1="5471.33" y1="1380.48" x2="5492.61" y2="1380.48" gradientTransform="translate(-5180.16)" xlink:href="#linear-gradient-41"/><linearGradient id="linear-gradient-95" x1="448.84" y1="1396.06" x2="352.17" y2="1284.06" xlink:href="#linear-gradient-4"/><linearGradient id="linear-gradient-96" x1="5634.44" y1="1268.36" x2="5612.95" y2="1416.82" gradientTransform="translate(-5180.16)" xlink:href="#linear-gradient-3"/><linearGradient id="linear-gradient-97" x1="254.07" y1="1282.51" x2="94.74" y2="1521.84" xlink:href="#linear-gradient-4"/><linearGradient id="linear-gradient-98" x1="5572.12" y1="1382.27" x2="5597.53" y2="1382.27" gradientTransform="translate(-5180.16)" xlink:href="#linear-gradient-41"/><linearGradient id="linear-gradient-99" x1="344.04" y1="1128.68" x2="289.38" y2="1238.01" xlink:href="#linear-gradient-4"/><linearGradient id="linear-gradient-100" x1="202.96" y1="945.33" x2="154.97" y2="1027.33" gradientTransform="matrix(1, 0, 0, 1, 0, 0)" xlink:href="#linear-gradient-41"/><linearGradient id="linear-gradient-101" x1="170.64" y1="1091.08" x2="65.65" y2="1242.57" xlink:href="#linear-gradient-6"/><linearGradient id="linear-gradient-102" x1="178.88" y1="950.31" x2="242.88" y2="919.64" gradientTransform="matrix(1, 0, 0, 1, 0, 0)" xlink:href="#linear-gradient-41"/><linearGradient id="linear-gradient-103" x1="4769.47" y1="3997.62" x2="4842.47" y2="3997.62" gradientTransform="translate(-5947.72 -116.52) rotate(-30.09)" xlink:href="#linear-gradient-3"/><linearGradient id="linear-gradient-104" x1="4726.63" y1="4042.15" x2="4775.65" y2="3991.85" gradientTransform="translate(-5947.72 -116.52) rotate(-30.09)" xlink:href="#linear-gradient-41"/><linearGradient id="linear-gradient-105" x1="362.36" y1="1069.67" x2="187.7" y2="1087" gradientTransform="matrix(1, 0, 0, 1, 0, 0)" xlink:href="#linear-gradient-41"/><linearGradient id="linear-gradient-106" x1="211.86" y1="909.23" x2="184.52" y2="1096.56" xlink:href="#linear-gradient-68"/><linearGradient id="linear-gradient-107" x1="264.79" y1="1017.33" x2="400.85" y2="1017.33" gradientTransform="matrix(1, 0, 0, 1, 0, 0)" xlink:href="#linear-gradient"/></defs><g><path d="M2220.71,544.08c-58.99-75.47-182.52-114.77-187.12-228.9-2.99-74.17,32.33-114.82-25.77-177.44C1867.36-13.63,1653.6-28.94,1472.06,37.26c-66.46,24.24-133.43,76.57-202.53,88.08-77.91,12.97-162.9,22.43-242.09,17.9-107.54-6.15-210.3-42.78-314.41-69.67-53.66-13.86-108.02-25.19-162.81-33.94-92.36-14.74-188.24-21.96-278.66,1.68C181.14,64.94,96.38,124.02,63.44,209.24c-23.49,60.77-19,127.97-12.76,192.59,5.14,53.19,11.43,107.08,32.05,156.59,20.02,48.06,53.1,90.85,67.26,140.85,12.11,42.76,9.99,94.42-7.92,135.59-17.98,41.32-51.23,72.57-61.06,118.22-28.01,130.19,86.51,241.69,208.08,243.72,77.38,1.29,1366.92-2.12,1519.14,.31,111.79,1.78,206.65,2.04,265.71-112.81,70.59-137.27,270.5-381.92,146.78-540.22Z" style="fill:url(#linear-gradient);"/><g><path d="M.07,597.35c10.73,77.58,90.13,525.91,490.76,512.02,0,0,17.67-311.31-482.47-519.37-4.38-1.82-9,2.29-8.29,7.36Z" style="fill:#91b3fa;"/><path d="M54.22,650.45c11.48,21.76,23.82,43.16,36.47,64.32,12.67,21.16,25.82,42.03,39.36,62.63,13.57,20.59,27.59,40.87,42.05,60.83,14.45,19.96,29.35,39.6,44.86,58.73,15.49,19.14,31.39,37.96,48.1,56.02,16.68,18.08,33.79,35.77,51.9,52.37,4.43,4.26,9.04,8.31,13.66,12.35,4.64,4.01,9.13,8.21,13.93,12.03l14.22,11.67,14.64,11.12c19.72,14.52,40.28,27.86,61.82,39.33l.06,.03c2.42,1.29,3.34,4.3,2.05,6.73s-4.3,3.34-6.73,2.05l-.05-.03c-43.93-23.99-83.41-54.94-119.42-89.06-18.14-16.96-35.23-34.97-51.85-53.35-16.65-18.36-32.46-37.45-47.86-56.85-15.41-19.38-30.19-39.25-44.5-59.44-14.33-20.18-28.19-40.67-41.61-61.45-13.39-20.8-26.38-41.85-38.87-63.19-12.48-21.36-24.63-42.87-35.98-64.91-.53-1.03-.13-2.3,.91-2.84,1.03-.53,2.29-.13,2.83,.89l.02,.03Z" style="fill:#bdd0fb;"/></g><g><path d="M2254.42,544.8c13.41,75.11,74.81,514.38-299.61,621.9,0,0-109.92-283.14,289.73-626.23,3.5-3,9-.58,9.88,4.33Z" style="fill:#bdd0fb;"/><path d="M2224.66,610.96c-3.85,23.85-8.59,47.44-13.69,70.99-5.12,23.54-10.77,46.96-16.88,70.26-6.13,23.3-12.78,46.47-19.94,69.48-7.15,23.01-14.82,45.88-23.22,68.48-8.38,22.61-17.24,45.06-27.1,67.1-9.83,22.04-20.2,43.89-31.86,65.07-23.02,42.48-50.19,83.09-83.61,118.6-2.08,2.21-5.56,2.31-7.77,.22-2.21-2.09-2.31-5.57-.23-7.79,0,0,.01-.01,.02-.02l.08-.08c32.87-34.17,60.09-73.77,83.28-115.49,11.75-20.8,22.25-42.32,32.24-64.06,10.02-21.74,19.06-43.94,27.64-66.32,8.6-22.37,16.48-45.03,23.84-67.86,7.38-22.82,14.25-45.82,20.61-68.97,6.34-23.15,12.23-46.43,17.59-69.83,5.34-23.39,10.33-46.93,14.41-70.52v-.04c.23-1.27,1.43-2.12,2.7-1.9,1.26,.22,2.1,1.41,1.9,2.67Z" style="fill:url(#linear-gradient-2);"/></g><g><path d="M2171.78,11.18c18.72,92.84,105.62,637.58-390.9,810.94,0,0-149.53-343.89,377.71-815.35,4.61-4.12,11.96-1.65,13.18,4.41Z" style="fill:#91b3fa;"/><path d="M2132,97.31c-4.75,31.61-10.84,62.89-17.5,94.09-6.69,31.18-14.14,62.21-22.38,93.02-8.23,30.82-17.24,61.43-27.06,91.8-2.51,7.57-4.87,15.2-7.51,22.73l-7.84,22.62c-5.5,14.98-10.89,30.01-16.85,44.82-5.7,14.92-12.05,29.58-18.25,44.29l-9.8,21.87c-3.2,7.32-6.85,14.44-10.25,21.66-13.95,28.75-28.92,57.06-45.79,84.27l-6.24,10.26-6.61,10.03-6.61,10.03-3.3,5.02-3.51,4.88-14.06,19.51-14.92,18.88c-20.35,24.8-42.57,48.17-67.07,69.11-2.06,1.76-5.16,1.52-6.93-.54-1.76-2.06-1.52-5.16,.54-6.93l.03-.02,.06-.05c24.1-20.3,46.1-43.08,66.32-67.36l14.84-18.5,14.02-19.15,3.5-4.79,3.3-4.94,6.61-9.87,6.61-9.87,6.25-10.11c16.91-26.81,31.96-54.79,46.03-83.24,3.43-7.15,7.11-14.19,10.34-21.44l9.9-21.66c6.27-14.59,12.69-29.12,18.48-43.92,6.04-14.7,11.51-29.62,17.11-44.49l7.98-22.47c2.69-7.48,5.09-15.06,7.65-22.58,10-30.18,19.21-60.63,27.65-91.3,8.44-30.67,16.1-61.55,23-92.61,6.87-31.05,13.19-62.28,18.14-93.64v-.04c.19-1.14,1.25-1.91,2.39-1.73,1.13,.18,1.9,1.24,1.73,2.36Z" style="fill:#bdd0fb;"/></g><g><path d="M544.13,24.43c-50.61,80.08-326.1,558.11,76.05,897.2,0,0,262.38-268.02-62.16-896.62-2.84-5.5-10.59-5.81-13.89-.58Z" style="fill:#91b3fa;"/><path d="M554.24,119.83c-4.72,29.84-8.84,59.81-12.69,89.79-3.84,29.99-7.33,60.02-10.47,90.09-6.28,60.14-11.22,120.41-14.29,180.78-3.03,60.36-4.31,120.82-2.27,181.17,.92,30.17,2.93,60.3,6.09,90.27,3.2,29.96,7.59,59.81,14.31,89.09v.02c.48,2.09-.82,4.18-2.92,4.66-2.09,.48-4.18-.83-4.66-2.92v-.02c-6.64-29.74-10.87-59.89-13.91-90.08-2.99-30.21-4.83-60.5-5.56-90.81-1.67-60.61,0-121.21,3.4-181.67,3.45-60.46,8.77-120.79,15.43-180.95,3.33-30.08,7.01-60.12,11.04-90.12,4.04-30,8.34-59.94,13.26-89.83,.15-.9,.99-1.5,1.89-1.36,.89,.15,1.5,.99,1.36,1.88v.02Z" style="fill:#bdd0fb;"/></g><g><path d="M153.13,108.12C126.19,217.36-4.66,859.48,575.85,1090.5c0,0,194.96-400.56-406.84-986.95-5.26-5.13-14.11-2.57-15.87,4.56Z" style="fill:#bdd0fb;"/><path d="M199.96,211.96c4.24,37.53,10.06,74.94,16.6,112.17,6.58,37.24,14.06,74.31,22.45,111.18,16.82,73.71,37.13,146.66,62.14,217.98,25.08,71.25,54.79,141.02,91.75,206.82,9.18,16.48,18.99,32.59,29.2,48.44,10.19,15.86,20.98,31.32,32.34,46.34,22.6,30.12,47.8,58.28,75.52,83.65l.02,.02c1.49,1.36,1.59,3.67,.23,5.15-1.36,1.49-3.67,1.59-5.15,.23h-.01c-28-25.87-53.35-54.48-76.02-84.99-11.4-15.21-22.21-30.86-32.4-46.88-10.21-16.01-20.01-32.29-29.18-48.91-36.89-66.39-66.38-136.58-91.21-208.16-24.76-71.65-44.77-144.86-61.28-218.78-8.24-36.97-15.56-74.14-21.97-111.46-6.39-37.34-12.03-74.78-16.12-112.48-.09-.85,.52-1.61,1.37-1.7,.85-.09,1.61,.52,1.7,1.37v.02Z" style="fill:#fff; opacity:.28;"/></g><g><path d="M626.7,237.16l1379.06-22.63c55.52-.91,100.09,45.33,96.79,100.42l-47.47,792.63c-2.6,43.38-38.53,77.36-82.25,77.78l-1325.61,12.73c-32.74,.31-59.79-25.32-61.04-57.84l-31.72-827.25c-1.57-40.94,31.03-75.16,72.24-75.84Z" style="fill:url(#linear-gradient-3);"/><path d="M647.84,257.94l1343.06-21.49c54.07-.87,97.47,43.04,94.26,95.35l-46.23,752.61c-2.53,41.19-37.53,73.46-80.1,73.85l-1291.01,12.09c-31.89,.3-58.23-24.04-59.45-54.92l-30.89-785.49c-1.53-38.87,30.22-71.36,70.36-72.01Z" style="fill:url(#linear-gradient-4);"/><path d="M672.95,285.4l1278.91-21.11c51.49-.85,92.82,42.29,89.76,93.7l-44.02,739.54c-2.41,40.47-35.73,72.18-76.28,72.57l-1229.35,11.88c-30.36,.29-55.45-23.62-56.61-53.97l-29.41-771.85c-1.46-38.2,28.78-70.12,66.99-70.76Z" style="fill:url(#linear-gradient-5);"/><path d="M683.11,369.06c-1.28,0-2.32-2-2.33-4.48,0-2.48,1.04-4.5,2.32-4.5l749.48-3.15h0c1.28,0,2.32,2,2.33,4.48,0,2.48-1.04,4.5-2.32,4.5l-749.48,3.15h0Z" style="fill:#91b3fa;"/><path d="M680.8,615.14c-1.28,0-2.32-2-2.32-4.48,0-2.48,1.03-4.5,2.31-4.5l747.29-3.15h0c1.28,0,2.32,2,2.32,4.48,0,2.48-1.03,4.5-2.31,4.5l-747.29,3.15h0Z" style="fill:#91b3fa;"/><path d="M706.08,892.83c-1.24,0-2.25-2.59-2.25-5.8,0-3.21,1-5.82,2.24-5.82l724.36-4.08h0c1.24,0,2.25,2.59,2.25,5.8,0,3.21-1,5.82-2.24,5.82l-724.36,4.08h0Z" style="fill:#91b3fa;"/><path d="M1041.49,1158.37c-2.45,0-4.46-1.97-4.49-4.43l-12.31-867.5c-.03-2.48,1.95-4.52,4.43-4.56,2.53,.01,4.52,1.95,4.56,4.43l12.31,867.5c.03,2.48-1.95,4.52-4.43,4.56h-.06Z" style="fill:#91b3fa;"/><path d="M1449.06,1158.37c-2.48,0-4.49-2.01-4.49-4.49V268.72c0-2.48,2.01-4.49,4.49-4.49s4.49,2.01,4.49,4.49v885.16c0,2.48-2.01,4.49-4.49,4.49Z" style="fill:#91b3fa;"/><path d="M718.43,320.42h0c0,11.55,4.25,20.92,9.5,20.92h231.93c5.25,0,9.5-9.36,9.5-20.92h0c0-11.55-4.25-20.92-9.5-20.92h-231.93c-5.25,0-9.5,9.36-9.5,20.92Z" style="fill:#91b3fa;"/><path d="M1074.42,320.42h0c0,11.55,5.2,20.92,11.61,20.92h283.44c6.41,0,11.61-9.36,11.61-20.92h0c0-11.55-5.2-20.92-11.61-20.92h-283.44c-6.41,0-11.61,9.36-11.61,20.92Z" style="fill:#91b3fa;"/><path d="M1494.22,501.59h0c0,48.69,8.18,88.16,18.27,88.16h446.13c10.09,0,18.27-39.47,18.27-88.16h0c0-48.69-8.18-88.16-18.27-88.16h-446.13c-10.09,0-18.27,39.47-18.27,88.16Z" style="fill:url(#linear-gradient-6);"/><path d="M1622.96,774.75h0c0,41.35,3.26,74.87,7.27,74.87h177.54c4.02,0,7.27-33.52,7.27-74.87h0c0-41.35-3.26-74.87-7.27-74.87h-177.54c-4.02,0-7.27,33.52-7.27,74.87Z" style="fill:url(#linear-gradient-7);"/><g><path d="M778.34,518.82l-3.56-15.64h-16.15l-3.56,15.64h-11.53l15.34-62.22h15.64l15.38,62.22h-11.57Zm-5.72-25.85l-3.31-14.41c-.2-.88-.64-3.07-1.34-6.59-.69-3.52-1.11-5.87-1.25-7.06-.37,2.43-.83,5.11-1.4,8.03-.57,2.92-2.03,9.6-4.41,20.03h11.7Z" style="fill:url(#linear-gradient-8);"/><path d="M792.96,500.51v-9.92h21.32v9.92h-21.32Z" style="fill:url(#linear-gradient-9);"/><path d="M854.38,487.84c0,11.22-1.35,19.33-4.05,24.33-2.7,5-7.04,7.5-13.03,7.5s-10.29-2.51-12.91-7.54c-2.61-5.03-3.92-13.12-3.92-24.29s1.37-19.31,4.11-24.37c2.74-5.06,7.04-7.59,12.88-7.59s10.27,2.47,12.93,7.42c2.66,4.95,3.98,13.13,3.98,24.54Zm-22.38,0c0,8.67,.37,14.52,1.12,17.53,.75,3.01,2.17,4.51,4.26,4.51,1.41,0,2.51-.65,3.28-1.95,.78-1.3,1.34-3.45,1.67-6.46,.34-3.01,.51-7.55,.51-13.63,0-8.53-.4-14.35-1.19-17.46-.79-3.11-2.22-4.66-4.28-4.66s-3.51,1.55-4.26,4.64c-.75,3.09-1.12,8.92-1.12,17.48Z" style="fill:url(#linear-gradient-10);"/><path d="M878.7,480.04c4.66,0,8.37,1.63,11.13,4.87,2.75,3.25,4.13,7.7,4.13,13.35,0,6.75-1.72,12.01-5.15,15.77-3.43,3.76-8.2,5.64-14.3,5.64-5.43,0-9.82-1.03-13.18-3.09v-10.77c1.44,1.05,3.3,1.97,5.57,2.78,2.27,.81,4.39,1.21,6.34,1.21,6.07,0,9.11-3.53,9.11-10.6,0-6.58-2.95-9.88-8.86-9.88-2.35,0-4.83,.45-7.46,1.36l-3.73-2.75,1.91-31.07h26.45v10.3h-16.57l-.85,13.39c1.58-.34,3.4-.51,5.47-.51Z" style="fill:url(#linear-gradient-11);"/><path d="M900.83,492.5c0-12.63,1.96-21.86,5.89-27.7,3.93-5.83,9.92-8.75,17.97-8.75,1.27,0,2.54,.08,3.81,.23,1.27,.16,2.23,.32,2.88,.49v9.54c-1.95-.45-3.87-.68-5.76-.68-3.22,0-5.86,.71-7.93,2.12-2.06,1.41-3.63,3.53-4.7,6.34-1.07,2.81-1.72,6.76-1.95,11.85h.47c.99-2.34,2.34-4.12,4.07-5.32,1.72-1.2,3.72-1.8,5.98-1.8,4.15,0,7.39,1.69,9.71,5.06,2.32,3.38,3.48,8.2,3.48,14.47s-1.53,11.75-4.58,15.58c-3.05,3.83-7.19,5.74-12.42,5.74-5.54,0-9.74-2.29-12.61-6.87-2.87-4.58-4.3-11.34-4.3-20.3Zm17,17.46c1.7,0,3.06-.93,4.09-2.8,1.03-1.87,1.55-4.77,1.55-8.73,0-3.19-.46-5.71-1.38-7.57-.92-1.85-2.31-2.78-4.17-2.78-1.67,0-3.02,.86-4.07,2.59-1.05,1.72-1.57,3.9-1.57,6.53,0,4.13,.49,7.28,1.46,9.47,.97,2.19,2.34,3.28,4.09,3.28Z" style="fill:url(#linear-gradient-12);"/></g><path d="M1234.27,448.22c4.83,0,8.69,1.37,11.57,4.11,2.88,2.74,4.32,6.47,4.32,11.19,0,2.91-.67,5.55-2.01,7.9-1.34,2.36-3.62,4.61-6.84,6.76,3.62,2.57,6.19,5.21,7.71,7.9,1.53,2.7,2.29,5.64,2.29,8.84,0,5.06-1.55,9.14-4.66,12.25s-7.23,4.66-12.38,4.66-9.52-1.43-12.55-4.3c-3.02-2.87-4.54-6.96-4.54-12.27,0-3.56,.76-6.7,2.27-9.43,1.51-2.73,3.85-5.11,7.01-7.14-2.94-2.34-5.04-4.71-6.29-7.1-1.26-2.39-1.89-5.08-1.89-8.07,0-4.63,1.49-8.34,4.47-11.13,2.98-2.78,6.82-4.17,11.51-4.17Zm-6.15,46.45c0,2.49,.52,4.46,1.55,5.93,1.03,1.47,2.51,2.2,4.43,2.2,2.09,0,3.65-.73,4.68-2.2,1.03-1.47,1.55-3.45,1.55-5.93,0-1.78-.41-3.46-1.23-5.04-.82-1.58-2.4-3.4-4.75-5.47l-.59-.59c-1.84,1.36-3.24,2.9-4.2,4.64-.96,1.74-1.44,3.89-1.44,6.46Zm6.06-37.51c-1.61,0-2.83,.59-3.64,1.76-.82,1.17-1.23,2.85-1.23,5.02,0,1.86,.34,3.49,1.02,4.87,.68,1.39,1.99,2.85,3.94,4.41,1.86-1.44,3.14-2.88,3.84-4.32,.69-1.44,1.04-3.09,1.04-4.96,0-4.52-1.65-6.78-4.96-6.78Z" style="fill:url(#linear-gradient-13);"/><g><path d="M1224.37,767.62h-11.36v-36.37c0-3.96,.2-8.5,.59-13.65-.2,.28-.93,1.14-2.18,2.59-1.26,1.44-3.71,4.03-7.35,7.76l-6.44-7.04,16.49-15.26h10.26v61.96Z" style="fill:url(#linear-gradient-14);"/><path d="M1268.79,719.6c0,3.9-.96,7.17-2.88,9.81-1.92,2.64-4.63,4.47-8.14,5.49v.34c3.9,.62,6.92,2.15,9.05,4.58,2.13,2.43,3.2,5.74,3.2,9.92,0,5.71-1.77,10.26-5.32,13.65-3.55,3.39-8.4,5.09-14.56,5.09-5.48,0-10.09-.97-13.82-2.92v-10.34c1.86,1.13,3.88,2.02,6.06,2.67,2.18,.65,4.27,.97,6.27,.97,3.28,0,5.75-.76,7.42-2.27,1.67-1.51,2.5-3.91,2.5-7.18,0-6.19-3.8-9.28-11.4-9.28h-3.52v-8.6h3.35c3.36,0,5.94-.79,7.74-2.37,1.79-1.58,2.69-3.94,2.69-7.08,0-2.46-.57-4.32-1.72-5.57-1.14-1.26-2.76-1.89-4.85-1.89-3.19,0-6.3,1.36-9.32,4.07l-5.21-7.63c4.18-4.18,9.45-6.27,15.81-6.27,5.23,0,9.31,1.32,12.25,3.96,2.94,2.64,4.41,6.27,4.41,10.87Z" style="fill:url(#linear-gradient-15);"/></g><g><path d="M1225.37,1037.93h-11.36v-36.37c0-3.96,.2-8.5,.59-13.65-.2,.28-.93,1.14-2.18,2.59-1.26,1.44-3.71,4.03-7.35,7.76l-6.44-7.04,16.49-15.26h10.26v61.96Z" style="fill:url(#linear-gradient-16);"/><path d="M1271.7,1006.95c0,11.22-1.35,19.33-4.05,24.33-2.7,5-7.04,7.5-13.03,7.5s-10.29-2.51-12.91-7.54c-2.61-5.03-3.92-13.12-3.92-24.29s1.37-19.31,4.11-24.37c2.74-5.06,7.04-7.59,12.88-7.59s10.27,2.47,12.93,7.42c2.66,4.94,3.98,13.13,3.98,24.54Zm-22.38,0c0,8.67,.37,14.52,1.12,17.53,.75,3.01,2.17,4.51,4.26,4.51,1.41,0,2.51-.65,3.28-1.95,.78-1.3,1.34-3.45,1.67-6.46,.34-3.01,.51-7.55,.51-13.63,0-8.53-.4-14.35-1.19-17.46-.79-3.11-2.22-4.66-4.28-4.66s-3.51,1.55-4.26,4.64c-.75,3.09-1.12,8.92-1.12,17.48Z" style="fill:url(#linear-gradient-17);"/></g><g><path d="M784.14,775.62l-3.56-15.64h-16.15l-3.56,15.64h-11.53l15.34-62.22h15.64l15.38,62.22h-11.57Zm-5.72-25.85l-3.31-14.41c-.2-.88-.64-3.07-1.34-6.59-.69-3.52-1.11-5.87-1.25-7.06-.37,2.43-.83,5.11-1.4,8.03-.57,2.92-2.03,9.6-4.41,20.03h11.7Z" style="fill:url(#linear-gradient-18);"/><path d="M798.76,757.31v-9.92h21.32v9.92h-21.32Z" style="fill:url(#linear-gradient-19);"/><path d="M860.17,744.64c0,11.22-1.35,19.33-4.05,24.33-2.7,5-7.04,7.5-13.03,7.5s-10.29-2.51-12.91-7.54c-2.61-5.03-3.92-13.12-3.92-24.29s1.37-19.31,4.11-24.37c2.74-5.06,7.04-7.59,12.88-7.59s10.27,2.47,12.93,7.42c2.66,4.94,3.98,13.13,3.98,24.54Zm-22.38,0c0,8.67,.37,14.52,1.12,17.53,.75,3.01,2.17,4.51,4.26,4.51,1.41,0,2.51-.65,3.28-1.95,.78-1.3,1.34-3.45,1.67-6.46,.34-3.01,.51-7.55,.51-13.63,0-8.53-.4-14.35-1.19-17.46-.79-3.11-2.22-4.66-4.28-4.66s-3.51,1.55-4.26,4.64c-.75,3.09-1.12,8.92-1.12,17.48Z" style="fill:url(#linear-gradient-20);"/><path d="M898.44,727.6c0,3.9-.96,7.17-2.88,9.81-1.92,2.64-4.63,4.47-8.14,5.49v.34c3.9,.62,6.92,2.15,9.05,4.58,2.13,2.43,3.2,5.74,3.2,9.92,0,5.71-1.77,10.26-5.32,13.65-3.55,3.39-8.4,5.09-14.56,5.09-5.48,0-10.09-.97-13.82-2.92v-10.34c1.86,1.13,3.88,2.02,6.06,2.67,2.18,.65,4.27,.97,6.27,.97,3.28,0,5.75-.76,7.42-2.27,1.67-1.51,2.5-3.91,2.5-7.18,0-6.19-3.8-9.28-11.4-9.28h-3.52v-8.6h3.35c3.36,0,5.94-.79,7.74-2.37,1.79-1.58,2.69-3.94,2.69-7.08,0-2.46-.57-4.32-1.72-5.57-1.14-1.26-2.76-1.89-4.85-1.89-3.19,0-6.3,1.36-9.32,4.07l-5.21-7.63c4.18-4.18,9.45-6.27,15.81-6.27,5.23,0,9.31,1.32,12.25,3.96,2.94,2.64,4.41,6.27,4.41,10.87Z" style="fill:url(#linear-gradient-21);"/><path d="M924.68,736.84c4.66,0,8.37,1.63,11.13,4.87,2.75,3.25,4.13,7.7,4.13,13.35,0,6.75-1.72,12.01-5.15,15.77-3.43,3.76-8.2,5.64-14.3,5.64-5.43,0-9.82-1.03-13.18-3.09v-10.77c1.44,1.05,3.3,1.97,5.57,2.78,2.27,.81,4.39,1.21,6.34,1.21,6.07,0,9.11-3.53,9.11-10.6,0-6.58-2.95-9.88-8.86-9.88-2.35,0-4.83,.45-7.46,1.36l-3.73-2.75,1.91-31.07h26.45v10.3h-16.57l-.85,13.39c1.58-.34,3.4-.51,5.47-.51Z" style="fill:url(#linear-gradient-22);"/></g><g><path d="M1612.65,564.83l-7.31-32.12h-33.16l-7.31,32.12h-23.68l31.51-127.78h32.12l31.6,127.78h-23.76Zm-11.75-53.1l-6.79-29.59c-.41-1.8-1.32-6.31-2.74-13.54-1.42-7.22-2.28-12.06-2.57-14.49-.75,4.99-1.71,10.49-2.87,16.5-1.16,6.01-4.18,19.72-9.05,41.13h24.02Z" style="fill:#fff;"/><path d="M1642.68,527.23v-20.37h43.78v20.37h-43.78Z" style="fill:#fff;"/><path d="M1768.8,501.2c0,23.04-2.77,39.69-8.31,49.96-5.54,10.27-14.46,15.41-26.77,15.41s-21.14-5.16-26.5-15.49c-5.37-10.33-8.05-26.95-8.05-49.88s2.81-39.66,8.44-50.05c5.63-10.39,14.45-15.58,26.46-15.58s21.09,5.08,26.55,15.23c5.45,10.16,8.18,26.96,8.18,50.4Zm-45.96,0c0,17.82,.77,29.81,2.31,35.99,1.54,6.18,4.45,9.27,8.75,9.27,2.9,0,5.15-1.33,6.75-4,1.6-2.67,2.74-7.09,3.44-13.27,.7-6.18,1.04-15.51,1.04-27.98,0-17.52-.81-29.48-2.44-35.86-1.63-6.38-4.56-9.57-8.79-9.57s-7.21,3.18-8.75,9.53c-1.54,6.35-2.31,18.32-2.31,35.91Z" style="fill:#fff;"/><path d="M1838.7,564.83h-23.33v-74.68c0-8.12,.41-17.47,1.22-28.03-.41,.58-1.9,2.35-4.48,5.31-2.58,2.96-7.62,8.27-15.1,15.93l-13.23-14.45,33.86-31.34h21.06v127.26Z" style="fill:#fff;"/><path d="M1901.28,485.19c9.57,0,17.19,3.34,22.85,10.01,5.66,6.67,8.49,15.81,8.49,27.42,0,13.87-3.53,24.66-10.58,32.38-7.05,7.72-16.84,11.58-29.38,11.58-11.14,0-20.17-2.12-27.07-6.35v-22.11c2.96,2.15,6.77,4.05,11.45,5.7,4.67,1.65,9.01,2.48,13.01,2.48,12.48,0,18.71-7.25,18.71-21.76,0-13.52-6.06-20.28-18.19-20.28-4.82,0-9.92,.93-15.32,2.79l-7.66-5.66,3.92-63.8h54.32v21.15h-34.03l-1.74,27.51c3.25-.7,6.99-1.04,11.23-1.04Z" style="fill:#fff;"/></g><path d="M1703.3,830.37l29.3-87.11h-36.44v-17.22h56.02v13.15l-28.8,91.18h-20.08Z" style="fill:#fff;"/><g><path d="M764.13,969.55h15.59c6.35,0,10.98,1.23,13.88,3.7,2.9,2.47,4.35,6.39,4.35,11.77,0,3.54-.77,6.5-2.3,8.88-1.53,2.38-3.62,3.82-6.27,4.33v.42c3.46,.86,5.95,2.48,7.48,4.85,1.53,2.37,2.3,5.52,2.3,9.45,0,5.55-1.48,9.89-4.45,13.02-2.97,3.14-7.03,4.7-12.18,4.7h-18.39v-61.11Zm10.7,24.58h5.22c2.4,0,4.08-.64,5.06-1.92,.98-1.28,1.46-3.19,1.46-5.73s-.56-4.35-1.67-5.45c-1.11-1.1-2.87-1.65-5.27-1.65h-4.81v14.75Zm0,9.49v17.1h5.73c2.37,0,4.13-.72,5.29-2.17,1.16-1.45,1.73-3.69,1.73-6.73,0-5.46-2.4-8.19-7.19-8.19h-5.56Z" style="fill:url(#linear-gradient-23);"/><path d="M805.13,1012.6v-9.78h21.02v9.78h-21.02Z" style="fill:url(#linear-gradient-24);"/><path d="M865.7,1000.1c0,11.06-1.33,19.06-3.99,23.99-2.66,4.93-6.95,7.4-12.85,7.4s-10.15-2.48-12.73-7.44c-2.58-4.96-3.87-12.94-3.87-23.95s1.35-19.05,4.05-24.03c2.7-4.99,6.94-7.48,12.71-7.48s10.13,2.44,12.75,7.31c2.62,4.88,3.93,12.94,3.93,24.2Zm-22.07,0c0,8.56,.37,14.32,1.11,17.28,.74,2.97,2.14,4.45,4.2,4.45,1.39,0,2.47-.64,3.24-1.92,.77-1.28,1.32-3.41,1.65-6.37,.33-2.97,.5-7.45,.5-13.44,0-8.42-.39-14.16-1.17-17.22-.78-3.07-2.19-4.6-4.22-4.6s-3.46,1.53-4.2,4.58c-.74,3.05-1.11,8.8-1.11,17.24Z" style="fill:url(#linear-gradient-25);"/><path d="M905.08,996.17c0,23.55-7.87,35.32-23.62,35.32-2.62,0-4.79-.22-6.52-.67v-9.57c1.89,.61,3.66,.92,5.31,.92,4.65,0,8.19-1.62,10.6-4.85,2.41-3.23,3.74-8.32,3.99-15.26h-.38c-.89,2.2-2.17,3.92-3.82,5.16-1.66,1.24-3.63,1.86-5.91,1.86-4.15,0-7.37-1.7-9.66-5.1-2.29-3.4-3.43-8.07-3.43-14,0-6.52,1.5-11.69,4.49-15.51,3-3.82,7-5.73,12.02-5.73,5.46,0,9.65,2.35,12.56,7.06,2.91,4.71,4.37,11.49,4.37,20.36Zm-16.85-17.72c-1.67,0-3,.91-3.99,2.72-.99,1.81-1.48,4.67-1.48,8.57,0,3.2,.43,5.71,1.3,7.5,.86,1.8,2.17,2.7,3.93,2.7,1.59,0,2.97-.91,4.14-2.74,1.17-1.82,1.76-3.91,1.76-6.25,0-3.62-.52-6.61-1.55-8.97-1.03-2.35-2.4-3.53-4.1-3.53Z" style="fill:url(#linear-gradient-26);"/><path d="M911.51,1004.7c0-12.46,1.94-21.56,5.81-27.32,3.87-5.75,9.78-8.63,17.72-8.63,1.25,0,2.51,.08,3.76,.23,1.25,.15,2.2,.31,2.84,.48v9.4c-1.92-.45-3.82-.67-5.69-.67-3.18,0-5.78,.7-7.82,2.09-2.03,1.39-3.58,3.48-4.64,6.25-1.06,2.77-1.7,6.67-1.92,11.68h.46c.98-2.31,2.31-4.06,4.01-5.25,1.7-1.18,3.66-1.78,5.89-1.78,4.1,0,7.29,1.67,9.57,4.99,2.28,3.33,3.43,8.09,3.43,14.27s-1.5,11.59-4.51,15.36c-3.01,3.78-7.09,5.66-12.25,5.66-5.46,0-9.61-2.26-12.44-6.77-2.83-4.51-4.24-11.19-4.24-20.02Zm16.76,17.22c1.67,0,3.02-.92,4.03-2.76,1.02-1.84,1.53-4.71,1.53-8.61,0-3.15-.45-5.64-1.36-7.46-.91-1.82-2.28-2.74-4.12-2.74-1.64,0-2.98,.85-4.01,2.55-1.03,1.7-1.55,3.85-1.55,6.44,0,4.07,.48,7.18,1.44,9.34,.96,2.16,2.31,3.24,4.03,3.24Z" style="fill:url(#linear-gradient-27);"/></g></g><g><rect x="260.02" y="483.79" width="383.61" height="758.26" rx="28.53" ry="28.53" style="fill:url(#linear-gradient-28);"/><rect x="286.59" y="514.75" width="334.04" height="293.61" rx="28.53" ry="28.53" style="fill:url(#linear-gradient-29);"/><rect x="296.53" y="522.5" width="315.52" height="278.07" rx="28.53" ry="28.53" style="fill:#7d97f4;"/><rect x="483.24" y="587.82" width="114.19" height="41.68" rx="16.02" ry="16.02" style="fill:#91b3fa;"/><rect x="483.24" y="660.92" width="114.19" height="41.68" rx="16.02" ry="16.02" style="fill:#91b3fa;"/><rect x="484.03" y="731.38" width="114.19" height="41.68" rx="16.02" ry="16.02" style="fill:#91b3fa;"/><rect x="296.53" y="559.96" width="315.52" height="3.15" style="fill:#bdd0fb;"/><rect x="306.65" y="637.72" width="159.74" height="105.58" rx="14.65" ry="14.65" style="fill:url(#linear-gradient-30);"/><g><path d="M583.22,970.13h-89.6c-3.5,0-6.25-2.98-5.97-6.47l7.3-90.52c.25-3.11,2.85-5.51,5.97-5.51h76.22c3.15,0,5.76,2.44,5.97,5.59l6.08,90.52c.23,3.46-2.51,6.39-5.97,6.39Z" style="fill:url(#linear-gradient-31);"/><path d="M592.75,878.65h-114.09c-2.44,0-4.02-2.56-2.93-4.74l4.59-9.18c.56-1.11,1.69-1.81,2.93-1.81h104.6c1.21,0,2.32,.67,2.89,1.74l4.9,9.18c1.16,2.18-.42,4.82-2.89,4.82Z" style="fill:url(#linear-gradient-32);"/><rect x="477.75" y="859.24" width="115.36" height="5.41" rx="2.26" ry="2.26" style="fill:url(#linear-gradient-33);"/><g><path d="M512.4,941.48l-1.51-6.63h-6.84l-1.51,6.63h-4.89l6.5-26.37h6.63l6.52,26.37h-4.9Zm-2.42-10.96l-1.4-6.11c-.08-.37-.27-1.3-.57-2.79-.29-1.49-.47-2.49-.53-2.99-.16,1.03-.35,2.16-.59,3.4-.24,1.24-.86,4.07-1.87,8.49h4.96Z" style="fill:url(#linear-gradient-34);"/><path d="M518.59,933.72v-4.2h9.04v4.2h-9.04Z" style="fill:url(#linear-gradient-35);"/><path d="M544.62,928.35c0,4.75-.57,8.19-1.72,10.31-1.14,2.12-2.98,3.18-5.52,3.18s-4.36-1.07-5.47-3.2c-1.11-2.13-1.66-5.56-1.66-10.29s.58-8.18,1.74-10.33c1.16-2.14,2.98-3.22,5.46-3.22s4.35,1.05,5.48,3.14c1.13,2.1,1.69,5.56,1.69,10.4Zm-9.48,0c0,3.68,.16,6.15,.48,7.43,.32,1.28,.92,1.91,1.81,1.91,.6,0,1.06-.28,1.39-.83,.33-.55,.57-1.46,.71-2.74,.14-1.28,.22-3.2,.22-5.78,0-3.62-.17-6.08-.5-7.4-.34-1.32-.94-1.98-1.81-1.98s-1.49,.66-1.81,1.97c-.32,1.31-.48,3.78-.48,7.41Z" style="fill:url(#linear-gradient-36);"/><path d="M560.84,921.13c0,1.65-.41,3.04-1.22,4.16-.81,1.12-1.96,1.9-3.45,2.33v.14c1.65,.26,2.93,.91,3.84,1.94,.9,1.03,1.36,2.43,1.36,4.2,0,2.42-.75,4.35-2.25,5.78-1.5,1.44-3.56,2.16-6.17,2.16-2.32,0-4.28-.41-5.86-1.24v-4.38c.79,.48,1.65,.86,2.57,1.13,.92,.28,1.81,.41,2.66,.41,1.39,0,2.44-.32,3.14-.96,.71-.64,1.06-1.66,1.06-3.04,0-2.62-1.61-3.93-4.83-3.93h-1.49v-3.65h1.42c1.43,0,2.52-.33,3.28-1.01,.76-.67,1.14-1.67,1.14-3,0-1.04-.24-1.83-.73-2.36-.49-.53-1.17-.8-2.06-.8-1.35,0-2.67,.57-3.95,1.72l-2.21-3.23c1.77-1.77,4.01-2.66,6.7-2.66,2.22,0,3.95,.56,5.19,1.68,1.25,1.12,1.87,2.66,1.87,4.61Z" style="fill:url(#linear-gradient-37);"/><path d="M571.96,925.04c1.98,0,3.55,.69,4.72,2.07,1.17,1.38,1.75,3.26,1.75,5.66,0,2.86-.73,5.09-2.18,6.68-1.45,1.59-3.48,2.39-6.06,2.39-2.3,0-4.16-.44-5.59-1.31v-4.56c.61,.44,1.4,.84,2.36,1.18,.96,.34,1.86,.51,2.69,.51,2.57,0,3.86-1.5,3.86-4.49,0-2.79-1.25-4.19-3.75-4.19-.99,0-2.05,.19-3.16,.57l-1.58-1.17,.81-13.17h11.21v4.36h-7.02l-.36,5.68c.67-.14,1.44-.22,2.32-.22Z" style="fill:url(#linear-gradient-38);"/></g></g><g><path d="M379.64,720.37h-10.43v-33.38c0-3.63,.18-7.81,.54-12.53-.18,.26-.85,1.05-2,2.37-1.15,1.32-3.4,3.7-6.75,7.12l-5.91-6.46,15.13-14.01h9.42v56.88Z" style="fill:url(#linear-gradient-39);"/><path d="M420.41,676.29c0,3.58-.88,6.58-2.65,9.01-1.76,2.43-4.25,4.1-7.47,5.04v.31c3.58,.57,6.35,1.97,8.31,4.2,1.96,2.23,2.94,5.27,2.94,9.1,0,5.24-1.63,9.42-4.88,12.53-3.26,3.11-7.71,4.67-13.36,4.67-5.03,0-9.26-.89-12.68-2.68v-9.49c1.71,1.04,3.57,1.85,5.56,2.45,2,.6,3.92,.89,5.76,.89,3.01,0,5.28-.69,6.81-2.08,1.53-1.39,2.3-3.59,2.3-6.59,0-5.68-3.49-8.52-10.47-8.52h-3.23v-7.9h3.07c3.09,0,5.45-.73,7.1-2.18,1.65-1.45,2.47-3.62,2.47-6.5,0-2.26-.53-3.96-1.58-5.12-1.05-1.15-2.54-1.73-4.45-1.73-2.93,0-5.78,1.25-8.56,3.74l-4.78-7c3.84-3.84,8.68-5.76,14.51-5.76,4.8,0,8.55,1.21,11.24,3.64,2.7,2.43,4.05,5.75,4.05,9.98Z" style="fill:url(#linear-gradient-40);"/></g></g><g><path d="M551.09,699.13c.91-1.74,3.49-1.47,4.01,.43,1.95,7.01,6.66,19.23,16.54,23.57,.5,.22,.97,.44,1.43,.66,.45-1.34,.45-2.9-.62-4.55-3.07-4.7,2.47-11.11,2.47-11.11,0,0,.37,5.65,4.66,9.21,3.7,3.06,5.47,9.88,2.95,15.48-5.35,20.78-13.36,48.27,17.85,68.35,31.21,20.08,75.15-37.89,75.15-37.89l-21.81,69.15s-33.67,24.85-72.83-10.09c-39.16-34.94-13.2-85.77-13.2-85.77,0,0-29.87-12.05-16.6-37.42Z" style="fill:url(#linear-gradient-41);"/><path d="M681,661.67s-9.04-40.56,37.41-29.82c0,0,22.55-3.68,23.7,17.6,0,0,14.54,9.58,3.89,28,0,0,43.2-16.69,62.02,21.18,18.82,37.86,1.52,58.7-16.62,64.12,0,0,14.69,7.38,7.74,24.04-6.96,16.66-42.18,28.4-62.99,8.14,0,0-59.21,7.82-58.02-34,0,0-27.54-17.78,1.39-52.34,28.92-34.56,1.48-46.92,1.48-46.92Z" style="fill:url(#linear-gradient-42);"/><path d="M678.45,755.67c9.34-2.8,36.52-7.97,62.37,15.89,4.38,4.05,6.18,10.19,4.61,15.95-6.94,25.56-25.27,101.09-9.2,133.77,0,0-28.31,31.21-59.19,6.05,0,0-13.86-60.39-32.01-86.91-12.53-18.3,19.98-68.74,28.21-80.92,1.25-1.84,3.08-3.21,5.21-3.85Z" style="fill:url(#linear-gradient-43);"/><path d="M704.23,704.88s13.81,39.05,14.84,56.28c0,0-15.26,6.94-29.64-4.77,0,0-1.51-39.01-3.69-45.99l18.48-5.52Z" style="fill:url(#linear-gradient-44);"/><path d="M685.05,651.64s-36.11,50.53-14.52,65.21c21.59,14.68,47.29-21.23,47.29-21.23,0,0,8.38-27.66-.38-37.04-8.76-9.38-32.38-6.94-32.38-6.94Z" style="fill:url(#linear-gradient-45);"/><path d="M701.76,639.56s-16.59,3.93-18.91,11.44c-2.32,7.51,23.52,14.47,30.77,14.81l5.84,30.29s17.25-28.49,10.42-44.95c-6.83-16.46-28.11-11.58-28.11-11.58Z" style="fill:url(#linear-gradient-46);"/><path d="M710.82,691.9s14.06-16.28,19.65-5.67c5.59,10.61-12.65,18.58-18.97,13.37l-.68-7.7Z" style="fill:url(#linear-gradient-47);"/><path d="M640.98,1054.15c.11,2.74-4.71,24.49-7.33,36.09-1.05,4.67-.32,9.55,2.06,13.7l90.73,152.7c1.1,1.85,1.9,3.85,2.38,5.94,1.66,7.17,5.11,24.73,3.31,40.7l-4.69,9.75,20.3-4.61,4.42-54.51-5.75-3.5c-4.96-3.03-8.83-7.55-11.04-12.93-8.2-19.93-28.58-70.66-33.83-95.38-5.97-28.1-37.17-50.92-37.17-50.92l5.48-12.96-28.87-24.08Z" style="fill:url(#linear-gradient-48);"/><path d="M770.3,1289.67s-10.96-17.38-12.25-24.14c-1.29-6.76-4.88-18.71-11.64-15.11,0,0-3.18,32.86-2.09,45.7,1.1,12.84-14.52,12.43-14.52,12.43,0,0-4.3,.61-7.45,3.76-2.18,2.18-.62,5.95,2.45,6.15,5.11,.33,13.23,.42,21.75-1.23,2.98-.58,5.19-3.11,5.37-6.14l2.25-37.82,13.83,17.46,2.31-1.04Z" style="fill:url(#linear-gradient-49);"/><path d="M695.18,1078.48s3.2,136.59,3.63,155.99c.43,19.4-3.06,62.39-22.51,75.24l8.46,6.27s10.58-8.99,20.91-26.29c11.61-19.43,15.12-22.98,15.12-22.98l-3.85-7.89c-1.69-3.45-2.18-7.36-1.41-11.12,4.2-20.34,18.22-87.99,22.04-102.56,4.51-17.2,4.84-40.16-10.87-59.39-15.71-19.22-31.52-7.26-31.52-7.26Z" style="fill:url(#linear-gradient-50);"/><path d="M713.14,1322.13c.6,0,1.12-.43,1.2-1.02,.65-4.55,3.34-22.81,5.55-27.54,2.53-5.41,10.77-28.2,0-30.13,0,0-26.8,39.15-31.94,44.43-5.14,5.28-11.64,1.84-11.64,1.84,0,0-5.01,1.48-8.79,6.31-1.8,2.3-.12,5.67,2.8,5.7l18.05,.17c5.24,.05,9.96-3.13,11.91-8,3.18-7.94,8.64-19.58,15-24.74l-3.31,31.65c-.07,.71,.48,1.32,1.19,1.33h0Z" style="fill:url(#linear-gradient-51);"/><path d="M672.77,912.62s4.07,12.96-2.18,34.32l-38.76,135.36c-.61,2.13,.54,4.35,2.62,5.1,11.59,4.16,49.71,15.92,101.74,12.34,2.62-.18,4.82-2.04,5.39-4.6,3.43-15.43,15.13-68.08,17.53-78.9,9.18-41.22,19.42-85.68-25.65-112.56-20.78,8.9-40.15,14.14-60.69,8.94Z" style="fill:url(#linear-gradient-52);"/><path d="M744.52,776.67s44.1,36.65,55.05,86.74c10.95,50.08-64.45,55.41-64.45,55.41,0,0-10.23-11.43-22.39-7.35-12.15,4.08-.94-19.95,13.28-19.88,14.22,.06,7.63,11.3,27.74,2.19,19.59-8.87,31.7-36.32-18.29-77.92-2.9-2.41-5.21-5.49-6.6-8.99-9.71-24.44-2.01-40.47,15.65-30.19Z" style="fill:url(#linear-gradient-53);"/></g><g><rect x="2039.38" y="845.65" width="21.63" height="560.85" rx="10.81" ry="10.81" style="fill:#7d97f4;"/><rect x="1930.99" y="616.1" width="228.02" height="259" rx="23.05" ry="23.05" style="fill:#7d97f4;"/><rect x="1940.39" y="630.17" width="206.99" height="235.03" rx="23.05" ry="23.05" style="fill:#fff;"/><path d="M2079.92,744.48c0,49.17-16.44,73.76-49.32,73.76-5.47,0-10.01-.47-13.62-1.4v-19.99c3.96,1.28,7.65,1.92,11.09,1.92,9.72,0,17.09-3.37,22.13-10.13,5.03-6.75,7.81-17.37,8.34-31.86h-.79c-1.86,4.6-4.53,8.19-7.99,10.78-3.46,2.59-7.58,3.88-12.35,3.88-8.67,0-15.39-3.55-20.16-10.65-4.77-7.1-7.16-16.85-7.16-29.24,0-13.62,3.13-24.41,9.38-32.38,6.25-7.97,14.62-11.96,25.09-11.96,11.4,0,20.15,4.92,26.23,14.75,6.08,9.83,9.12,24,9.12,42.51Zm-35.18-37.01c-3.49,0-6.27,1.89-8.34,5.67-2.07,3.78-3.1,9.75-3.1,17.89,0,6.69,.9,11.91,2.71,15.67,1.8,3.75,4.54,5.63,8.2,5.63,3.32,0,6.2-1.91,8.64-5.72,2.44-3.81,3.67-8.16,3.67-13.05,0-7.56-1.08-13.8-3.23-18.72-2.15-4.92-5.01-7.38-8.55-7.38Z" style="fill:url(#linear-gradient-54);"/></g><g><path d="M1523.98,1077.54s167.47-82.75,112.7-143.67c-54.77-60.92-156.87-36.57-162.05,27.55-5.17,64.12,119.1,49.08,49.35,116.12Z" style="fill:#91b3fa;"/><g><path d="M1622.51,951.29h-73.91c-.93,0-1.69-.76-1.69-1.69s.76-1.69,1.69-1.69h73.91c.93,0,1.69,.76,1.69,1.69s-.76,1.69-1.69,1.69Z" style="fill:url(#linear-gradient-55);"/><path d="M1526.66,951.29h-21.93c-.93,0-1.69-.76-1.69-1.69s.76-1.69,1.69-1.69h21.93c.93,0,1.69,.76,1.69,1.69s-.76,1.69-1.69,1.69Z" style="fill:url(#linear-gradient-56);"/><path d="M1625,966.25h-27.75c-.93,0-1.69-.76-1.69-1.69s.76-1.69,1.69-1.69h27.75c.93,0,1.69,.76,1.69,1.69s-.76,1.69-1.69,1.69Z" style="fill:url(#linear-gradient-57);"/><path d="M1556.53,966.25h-49.31c-.93,0-1.69-.76-1.69-1.69s.76-1.69,1.69-1.69h49.31c.93,0,1.69,.76,1.69,1.69s-.76,1.69-1.69,1.69Z" style="fill:url(#linear-gradient-58);"/><path d="M1627.49,981.22h-73.77c-.93,0-1.69-.76-1.69-1.69s.76-1.69,1.69-1.69h73.77c.93,0,1.69,.76,1.69,1.69s-.76,1.69-1.69,1.69Z" style="fill:url(#linear-gradient-59);"/><path d="M1535.25,981.22h-25.54c-.93,0-1.69-.76-1.69-1.69s.76-1.69,1.69-1.69h25.54c.93,0,1.69,.76,1.69,1.69s-.76,1.69-1.69,1.69Z" style="fill:url(#linear-gradient-60);"/></g></g><g><g><rect x="1896.82" y="1261.93" width="13.12" height="141.83" style="fill:#7d97f4;"/><path d="M1960.81,1406.5h-114.87v-5.68c0-1.58,1.28-2.86,2.86-2.86h108.94c1.7,0,3.08,1.38,3.08,3.08v5.46Z" style="fill:#7d97f4;"/><rect x="1829.04" y="1228.16" width="153.49" height="43.53" rx="14.99" ry="14.99" style="fill:#7d97f4;"/></g><g><path d="M1830.32,1378.64s-37.45,26.99-30.95,45.13c0,0,40.98-17.68,45.93-31.61,4.95-13.93-.84-20.08-.84-20.08l-14.14,6.55Z" style="fill:url(#linear-gradient-61);"/><path d="M1835.95,1356.02l6.12,17.7c.92,2.67,0,5.71-2.39,7.22-1.2,.76-2.83,1.46-5.07,1.96-3.15,.72-6.41-.74-7.93-3.6l-7.33-13.79,16.59-9.5Z" style="fill:url(#linear-gradient-62);"/><path d="M1895.55,1196.67s-76.92,13.33-109.92,43.81c-33,30.48,30.29,127.72,30.29,127.72,0,0,10.37-.06,22.93-10.83,0,0-37.52-73.13-5.19-94.45,36.36-23.98,78.25-29.38,78.25-29.38l-15.62-34.52-.74-2.35Z" style="fill:url(#linear-gradient-63);"/><path d="M1805.88,1413.74c8.24-3.81,31.56-20.14,35.49-20.86,3.93-.72,10.75,3.9,10.75,3.9,0,0,1.66,2.98-.12,8.19-5.47,6.62-17.63,19.25-33.97,23.95-12.02,3.46-20.42,.23-25.66-3.54,2.88-4.39,8.02-9.1,13.5-11.64Z" style="fill:url(#linear-gradient-64);"/><path d="M1818.04,1428.92c16.34-4.7,28.49-17.33,33.97-23.95-1.2,3.52-3.96,8.04-9.87,13.35-14.65,13.17-42.63,17.91-48.58,17-4.77-.73-4.32-5.14-1.17-9.94,5.24,3.78,13.64,7,25.66,3.54Z" style="fill:url(#linear-gradient-65);"/><path d="M1859.11,1385.26c-.09,2.27-4.73,10.05-7.44,14.42-1.29,2.08-3.55,3.34-5.99,3.35-1.55,0-3.33-.13-4.95-.59-2.43-.7-3.79-3.28-3.08-5.71l5.3-18.09,16.16,6.62Z" style="fill:url(#linear-gradient-66);"/><path d="M1969.59,1173.58s17.08,45.68,0,59.57c-17.08,13.89-57.84,29.53-66.94,57.2-9.1,27.67-24.55,81.44-45.23,100.48,0,0-14.53-1.41-19.96-7.2,0,0,11.78-80.27,19.54-100.87,6.73-17.84,16.63-43.58,35.62-57.97,5.44-4.12,4.49-10.64,1.97-16.98l-4.59-11.54,79.59-22.69Z" style="fill:url(#linear-gradient-67);"/><path d="M1791.42,1137.78c28.64,1.73,19.72-44.03,19.2-45.85l43.47,30.71s-2.3,24.47-38.45,37.31c-9.14,3.25-17.5,3.39-24.89,1.8,3.15-9.19,2.51-17.43,.66-23.96Z" style="fill:url(#linear-gradient-68);"/><path d="M1736.04,1124c10.67-7.42,22.77,0,22.77,0,14.27,9.33,24.83,13.3,32.62,13.77,1.85,6.53,2.49,14.77-.66,23.96-15.99-3.44-27.43-15.01-32.4-20.95-1.79-2.14-4.96-2.51-7.15-.78-2.22,1.75-4.38,4.16-3.99,6.69,.77,4.99-5.02,6.57-5.45,4.76-.44-1.81,1.98-12.53,1.98-12.53,0,0-11.58,11.64-16.09,16.11-4.52,4.47-10.2,0-10.2,0,0,0,7.9-23.62,18.58-31.04Z" style="fill:url(#linear-gradient-69);"/><path d="M1924.98,1021.25s-41.67-16.69-119.22,47.34c0,0-6.48,13.41,.59,25.34,7.07,11.93,74.4,70.09,83.65,102.34,0,0,40.11,13.03,81.6-17.87,0,0-3.66-89.75-46.62-157.15Z" style="fill:url(#linear-gradient-70);"/><path d="M1842.6,1006.36l20.51,24.87c2.04,2.47,2.49,5.9,1.08,8.78-2.85,5.81-9.6,14.26-24.59,13.09-4.46-.35-8.4-3.04-10.35-7.06l-14.34-29.65,27.69-10.03Z" style="fill:url(#linear-gradient-71);"/><path d="M1957.25,1127.76c4.84-19.7-44.16-63.63-44.16-63.63l11.9-42.88s105.81,70.44,78.84,127.08c-3.87,8.12-9,13.81-14.95,17.61-8.52-22.93-22.1-33.45-31.63-38.18Z" style="fill:url(#linear-gradient-72);"/><path d="M1957.28,1124.89c.52,0,.99-.35,1.12-.88,4.95-20.14-42.49-62.95-44.51-64.76-.47-.43-1.21-.39-1.64,.09-.43,.48-.39,1.21,.09,1.64,.49,.43,48.43,43.68,43.81,62.49-.15,.62,.23,1.25,.85,1.4,.09,.02,.19,.03,.28,.03Z" style="fill:url(#linear-gradient-73);"/><path d="M1883.03,1126.07s58.1,22.56,72.28,5.59c.96-1.15,1.59-2.46,1.94-3.89,9.53,4.73,23.11,15.25,31.63,38.18-30.56,19.52-82.78-10.86-96.91-19.82-2.32-1.47-5.11-1.99-7.8-1.43-5.45,1.13-14.86,2.79-19.93,2.01-7.42-1.14-18.09,25.04-30.12,16.97,0,0,10.3-45.52,48.91-37.6Z" style="fill:url(#linear-gradient-74);"/><g><path d="M1791.43,977.74s-.35,27.08,4.02,39.38c4.38,12.3,5.06,21.18,19.97,17.77,14.91-3.41,23.71-15.25,25.03-29.88,0,0,2.19-22.62-3.21-29.23-5.4-6.62-45.81,1.97-45.81,1.97Z" style="fill:url(#linear-gradient-75);"/><path d="M1832.09,998.4l-1.76,.74s1.01-17.88-6.45-17.82-34.8,5.5-43.99-1.16c-8.86-6.42-8.86-19.51-3.17-25.56,.36-.38,.97-.39,1.37-.06l1.04,.85c.71,.58,1.77,0,1.67-.91h0c-.1-.87,.87-1.47,1.58-.97,2.79,1.97,9.12,4.43,22.13,1.59,18.47-4.03,32.72-1.85,37.97,9.88,.33,.74,1.31,.82,1.79,.16,.94-1.3,2.82-2.52,6.48-1.38,6.37,1.98,8.75,13.06,1.98,25.84-.32,.61,0,1.37,.68,1.49,2.38,.43,6.39,2.16,.78,9.06-5.73,7.06-10.29,8.46-12.12,8.73-.49,.07-.96-.21-1.12-.68l-3.76-10.77c-.19-.56-.82-.83-1.36-.61l-3.74,1.57Z" style="fill:url(#linear-gradient-76);"/><path d="M1832.58,1000.77s-2.34-16.22,5.94-14.87c8.28,1.35,3.48,17.82-1.56,20.58l-4.38-5.7Z" style="fill:url(#linear-gradient-77);"/></g></g><g><g><path d="M1637.97,1431.99c-.68,0-1.36-.13-2.02-.41-2.6-1.08-3.8-4-2.68-6.51l107.43-241.77c1.12-2.51,4.13-3.68,6.73-2.6,2.6,1.08,3.8,4,2.68,6.51l-107.43,241.78c-.83,1.88-2.72,3-4.71,3Z" style="fill:#91b3fa;"/><path d="M1758.99,1431.99c-1.98,0-3.87-1.12-4.71-3l-107.43-241.78c-1.12-2.52,.08-5.43,2.68-6.51,2.6-1.08,5.61,.08,6.73,2.6l107.43,241.77c1.12,2.52-.08,5.43-2.68,6.51-.66,.27-1.35,.41-2.02,.41Z" style="fill:#91b3fa;"/><path d="M1970.51,1431.99c-.68,0-1.36-.13-2.02-.41-2.6-1.08-3.8-4-2.68-6.51l107.43-241.77c1.12-2.51,4.13-3.68,6.73-2.6,2.6,1.08,3.8,4,2.68,6.51l-107.43,241.78c-.83,1.88-2.72,3-4.71,3Z" style="fill:#91b3fa;"/><path d="M2091.53,1431.99c-1.98,0-3.87-1.12-4.71-3l-107.43-241.78c-1.12-2.52,.08-5.43,2.68-6.51,2.6-1.08,5.61,.08,6.73,2.6l107.43,241.77c1.12,2.52-.08,5.43-2.68,6.51-.66,.27-1.35,.41-2.02,.41Z" style="fill:#91b3fa;"/></g><path d="M2104.13,1175.83c.27-1.59-.1-3.23-1.02-4.47-.92-1.25-2.29-1.97-3.73-1.97h-488.72c-1.9,0-3.66,1.08-4.69,2.87-1.02,1.79-1.16,4.04-.36,5.97l5.3,12.83c1.21,2.94,3.84,4.82,6.73,4.82h478.39c2.69,0,5-2.14,5.51-5.09l2.59-14.96Z" style="fill:#91b3fa;"/></g><g><path d="M1853.27,1170.55c-.09,0-.19,0-.28,0l-121.89-.13c-3.01,0-5.45-2.45-5.45-5.46,0-3.01,2.46-5.5,5.46-5.45l121.89,.13c3.01,0,5.45,2.45,5.45,5.46,0,2.92-2.3,5.3-5.18,5.44Z" style="fill:url(#linear-gradient-78);"/><path d="M1621.51,1059.87h101.51c7.49,0,14.3,4.32,17.5,11.09l46.93,99.51h-126.16c-4.83,0-9.16-2.95-10.94-7.44l-36.39-92.08c-2.1-5.32,1.82-11.09,7.54-11.09Z" style="fill:url(#linear-gradient-79);"/><path d="M1693.03,1110.9c2.2,6.83,.57,13.47-3.63,14.83-4.2,1.35-9.4-3.09-11.6-9.92-2.2-6.83-.57-13.47,3.63-14.83,4.2-1.35,9.4,3.09,11.6,9.92Z" style="fill:#91b3fa;"/></g></g><g><g><rect x="1404.08" y="1321.49" width="10.51" height="113.64" style="fill:#7d97f4;"/><path d="M1363.32,1437.32h92.04v-4.22c0-1.45-1.17-2.62-2.62-2.62h-86.8c-1.45,0-2.62,1.17-2.62,2.62v4.22Z" style="fill:#7d97f4;"/><rect x="1349.66" y="1296.02" width="115.72" height="32.82" rx="11.3" ry="11.3" style="fill:#7d97f4;"/></g><g><path d="M1486.92,1245.71s15.62,2.42,33.17,14.16c2.76,1.85,4.28,5.07,3.86,8.36-2.1,16.65-10.75,70.55-39.25,123.19-1.5,2.78-1.93,6.01-1.27,9.09l4.95,23.05,9.18,8.61h-23.65l-15.75-42.62,6.73-2.13c5.22-1.65,8.8-6.45,8.9-11.93l.79-45.72c-.67-20.37,12.49-34.42,12.49-34.42l-37.78-1.84,37.62-47.8Z" style="fill:url(#linear-gradient-80);"/><path d="M1506.8,1436.33c2.15,2.82-23.19,6.54-35.99,.37,0,0-17.75-30.88-17.75-46.77,0,0,1.41-3.24,11.83-2.51,0,0,5.96,36.56,12.25,40.65,6.29,4.1,17.6,.41,17.6,.41,0,0,8.87,3.68,12.05,7.84Z" style="fill:url(#linear-gradient-81);"/><path d="M1454.08,1296.02c.2-.35,40.67-4.87,40.67-4.87,0,0-1.32,12.31,2.82,29.24,4.14,16.94,63.56,90.33,63.56,90.33l-6.23,19.75c19.26,6.71,38.21,7.78,56.86,3.42l-38.61-23.17s-36.14-123.15-58.27-145.11l-40.57-14.03-20.22,44.44Z" style="fill:url(#linear-gradient-82);"/><path d="M1363.32,1224.37s-23.32,34.68-25.23,50.5c-1.91,15.82,6.39,22.25,30.85,23.31,24.47,1.06,89.78,1.04,89.78,1.04l55.74-47.64s-40.62-14.5-51.19-18.59c-10.56-4.1-99.96-8.62-99.96-8.62Z" style="fill:url(#linear-gradient-83);"/><path d="M1557.25,1423.83s-6.71,6.5-2.18,13.73c0,0,53.14,9.42,67.56,5.15,0,0-3-6.84-19.24-14.62l1.2,.92c1.52,1.16,.63,3.59-1.28,3.48-10.7-.61-32.86-2.57-46.06-8.65Z" style="fill:url(#linear-gradient-84);"/></g><g><path d="M1457.65,1059.68c0,3.19-28.74,121.35-28.74,121.35l-81.88,24.08c-15.79,4.64-32.75-1.76-41.52-15.69h0c-21.79-34.61-11.38-80.33,23.24-102.09l11.6-7.29c24.72-15.54,46.07-35.9,62.76-59.86l4.37-6.27,50.17,45.77Z" style="fill:url(#linear-gradient-85);"/><path d="M1426.38,1219.78s27.15-25.86,40.52-42.98c7.22-9.26,9.49-21.44,6.15-32.7-6.1-20.56-16.95-41.85-17.94-45.17-1.52-5.08-31.96-4.87-31.96-4.87,0,0-59.91,38.88-83.45,104.75l26.44,8.23s15.64-26.24,31.1-42.93c0,0-26.74,35.33-27.69,49.79l56.83,5.87Z" style="fill:url(#linear-gradient-86);"/><path d="M1458.79,1070.54c-.32,1.06-8.26,27.4-8.89,27.95-.62,.55-17.43,1.45-25.34-3.96l13.42-28.09,20.8,4.1Z" style="fill:url(#linear-gradient-87);"/><path d="M1445.74,1015.21s14.35,6.06,24.1,26.79c9.75,20.73,2.47,30.3-6.68,31.61-9.15,1.31-22.83,1.11-37.31-12.28-14.47-13.39,1.24-53.31,19.89-46.13Z" style="fill:url(#linear-gradient-88);"/><path d="M1435.58,1050.27s-10.82-30.33,16.07-30.69l6.33,4.42s9.87-16.82-6.33-24.84c-16.19-8.03-40.36-.88-47.25,20.94-6.89,21.82-2.86,35.9,8.61,46.34,11.46,10.44,16.19-1.4,16.19-1.4,0,0-6.24-9.76-3.7-14.99,2.54-5.22,8.4,1.08,8.4,1.08l1.68-.87Z" style="fill:url(#linear-gradient-89);"/><path d="M1435.12,1054.8s-5.47-15.62-12.77-9.4c-7.3,6.22,5.93,14.43,11.11,17.09l1.66-7.69Z" style="fill:url(#linear-gradient-90);"/><path d="M1481.69,1221.7l-19.95-19.23-27.6,11.66s-27.47,4.26-43.19,0l-15.72-4.26-35.53-11.06-5.58,15.77c-1.42,4,0,8.45,3.47,10.91,3.07,2.18,6.68,4.59,8.97,5.59,4.68,2.05,115.34-1.42,115.34-1.42l19.79-7.97Z" style="fill:url(#linear-gradient-91);"/><path d="M1318.18,1174.1c-.1,0-.21-.03-.31-.08-10.09-6.07-11.06-19.68-11.01-25.25,.1-10.89,3-21.66,8.37-31.13,9.63-16.97,26.21-28.46,42.24-39.56l3.3-2.29c16.18-11.26,34.06-24.92,41.29-44.61,.11-.31,.45-.46,.76-.35,.31,.11,.46,.45,.35,.76-7.36,20.01-25.4,33.81-41.73,45.17l-3.3,2.29c-15.92,11.03-32.39,22.43-41.89,39.17-5.28,9.3-8.12,19.87-8.22,30.56-.05,5.37,.87,18.47,10.44,24.22,.28,.17,.37,.53,.2,.81-.11,.18-.31,.29-.51,.29Z" style="fill:#91b3fa;"/><path d="M1324.82,1156.53c-.28,0-.52-.2-.58-.48-2.19-11.12-1.85-21.06,.98-29.55,5.13-15.34,18.67-26.45,29.9-34.41,2.24-1.59,4.51-3.15,6.78-4.72,10.25-7.05,20.85-14.35,28.5-24.23,.2-.26,.58-.3,.83-.11,.26,.2,.31,.57,.11,.83-7.76,10.03-18.44,17.38-28.76,24.48-2.27,1.56-4.54,3.12-6.77,4.71-11.08,7.86-24.43,18.81-29.46,33.82-2.77,8.3-3.09,18.03-.95,28.95,.06,.32-.15,.63-.47,.69-.04,0-.08,.01-.12,.01Z" style="fill:#91b3fa;"/></g></g><g><g><path d="M115.56,1258.61c-3.54,5.24-17.62,123.89-19.82,167.71-.15,2.96,2.22,5.43,5.19,5.43h0c2.56,0,4.74-1.86,5.13-4.39l25.74-164.98-16.24-3.77Z" style="fill:#7d97f4;"/><path d="M228.73,1258.61c3.54,5.24,17.62,123.89,19.82,167.71,.15,2.96-2.22,5.43-5.19,5.43h0c-2.56,0-4.74-1.86-5.13-4.39l-25.74-164.98,16.24-3.77Z" style="fill:#7d97f4;"/><path d="M94.27,1249.35v1.29c-.1,9.31,7.92,16.94,17.96,17.11l119,2.02c9.9,.17,18.15-6.98,18.63-16.15l.06-1.18c.5-9.56-7.62-17.61-17.94-17.79l-119.05-2.13c-10.19-.18-18.58,7.38-18.67,16.83Z" style="fill:#7d97f4;"/><path d="M131.8,1235.09l-61.66-192.16c-12.11-18.19-40.6-13.57-35.62,7.48l61.21,192.42,36.07-7.74Z" style="fill:#7d97f4;"/></g><g><g><path d="M318.87,1404.51c-19.28,0-27.81-1.65-31.63-3.16,.74,3.17,3.56,5.67,7.12,5.67h68.21c2.3,0,3.75-2.2,3.2-4.19-7.77,.63-24.29,1.69-46.91,1.69Z" style="fill:url(#linear-gradient-92);"/><path d="M365.77,1402.82c-.11-.4-.27-.8-.56-1.16-5.2-6.63-15.63-17.05-29.83-16.85-20.8,.29-28.05,2.55-44.21,.13l-3.81,12.64c-.39,1.29-.4,2.57-.12,3.77,3.81,1.51,12.34,3.16,31.63,3.16,22.62,0,39.13-1.06,46.91-1.69Z" style="fill:url(#linear-gradient-93);"/></g><path d="M295.85,1371.32l-4.68,15.92s10.37,4.72,19.49,.93l1.79-13.79-16.6-3.06Z" style="fill:url(#linear-gradient-94);"/><g><path d="M437.22,1394.49c-15.03,12.08-22.71,16.14-26.62,17.35,2.55,1.99,6.31,2.17,9.09-.07l53.17-42.72c1.79-1.44,1.55-4.05-.12-5.25-5.67,5.35-17.88,16.52-35.51,30.69Z" style="fill:url(#linear-gradient-95);"/><path d="M472.73,1363.8c-.34-.24-.71-.45-1.16-.55-8.19-1.89-22.82-3.44-33.76,5.61-16.03,13.25-20.28,19.55-34.39,27.79l4.91,12.19c.5,1.24,1.3,2.25,2.26,3,3.91-1.22,11.59-5.28,26.62-17.35,17.63-14.17,29.84-25.33,35.51-30.69Z" style="fill:url(#linear-gradient-96);"/></g><path d="M195.73,1189.96s115.43,9.43,139.11,20.57c23.68,11.15-19.32,167.38-19.32,167.38,0,0-6.45,3.1-20.79-1.36,0,0,14.71-115.3,3.76-140.3l-124.98-20.44,22.22-25.86Z" style="fill:url(#linear-gradient-97);"/><path d="M391.96,1374.7c1.07,.98,11.47,21.95,11.47,21.95,0,0,11.58-2.5,13.94-9.83l-10.42-18.93-14.99,6.81Z" style="fill:url(#linear-gradient-98);"/><path d="M126.2,1188.99s-3.76,9.05-3.61,21.08c.21,16.63,13.59,30.13,30.2,30.96l136.46,6.22c2.88,.13,5.32,2.13,6.04,4.92,3.21,12.4,18.88,50.49,95.5,126.5,2.04,2.02,5.21,2.37,7.64,.83l10.91-6.89c1.15-.72,1.51-2.22,.83-3.39l-79.45-135.68c-4.17-6.89-10.88-11.86-18.68-13.86l-116.31-29.73-69.52-.96Z" style="fill:url(#linear-gradient-99);"/><path d="M195.6,935.29s-27.18,35.49-36.34,52.66l34.99,4.47s8.28-24.05,20.01-37.39l-18.66-19.74Z" style="fill:url(#linear-gradient-100);"/><path d="M124.6,1189.96s33.41,9.53,62.52,0c0,0,25.31-106.55,36.26-130.35,0,0,8.67-62.49-36.6-72.52-10.98-2.43-17.81-4.08-21.36-5.14-1.95-.58-4.04,.1-5.25,1.73-11.21,15-61.83,90.87-35.57,206.28Z" style="fill:url(#linear-gradient-101);"/><g><path d="M223.63,904.69c.4,.7,9.97,53.1,9.97,53.1l-30.04,4.83-16.45-48.32s29.75-21.28,36.51-9.61Z" style="fill:url(#linear-gradient-102);"/><path d="M197.55,922.35l6.67,26.12c.09,.33,.21,.65,.38,.95,1.06,1.83,5.16,7.87,11.08,3.29,5.37-4.15,10.33-7.86,14.64-8.23,1.94-.16,3.68,1.16,4.02,3.07,.87,4.76,2.63,15.53,2.73,25.11,.02,1.95-1.47,3.57-3.4,3.76-5.83,.57-18.17,1.44-28.26-.18-1.37-.22-2.5-1.15-2.97-2.46-2.25-6.37-9.16-25.69-11.92-30.77-2.59-4.77-9.94-5.31-13.04-5.31-1.02,0-1.98-.42-2.68-1.15-2.48-2.6-7.06-9.08,.79-15.65,1.64-1.37,1.82-3.81,.4-5.41-2.83-3.19-5.68-8.65,.05-14.58,5.82-6.04,12.65-4.38,16.75-2.45,1.66,.78,3.59,.22,4.66-1.26,.61-.85,1.6-1.44,3.19-1.16,2.14,.38,4.12-1.26,4.28-3.43,.3-4.17,2.26-9.31,9.7-10.91,13.19-2.84,20.08,10.27,20.04,19.59-.04,9.32-14.51,11.59-22.78,10.22-6.29-1.04-11.55,4.81-13.71,7.67-.68,.91-.91,2.08-.63,3.18Z" style="fill:url(#linear-gradient-103);"/><path d="M193.05,952.5s-.63-16.24-7.24-17.63c-6.61-1.39-13.6,3.52-7.77,13.13,7.25,11.95,15.01,4.5,15.01,4.5Z" style="fill:url(#linear-gradient-104);"/></g><path d="M220.22,1043.12s25.94,74.72,76.5,17.85l4.81-2.14h0l36.24-24.77-4.04,14.34c-2.23,7.93-7.99,14.4-15.61,17.53l-4.77,1.96c-9.08,18.88-28.55,47.5-58.53,52.93-44.99,8.15-68.07-52.64-68.07-52.64,13.1-5.64,24.09-14.22,33.46-25.06Z" style="fill:url(#linear-gradient-105);"/><path d="M178.57,1073.67l-.3-.44c-6.38-9.34-6.44-9.44-9.26-15.07-1.21-2.42-2.88-5.74-5.75-11.21-.17-.32-.04-.71,.27-.88,.32-.17,.71-.04,.88,.27,2.88,5.48,4.54,8.8,5.76,11.23,2.74,5.46,2.83,5.65,8.87,14.47,15.45-6.78,29.06-16.58,40.49-29.13l-3.53-18.51c-.07-.35,.16-.69,.52-.76,.36-.06,.69,.16,.76,.52l3.65,19.14-.22,.24c-11.71,12.94-25.72,23-41.64,29.9l-.49,.21Z" style="fill:url(#linear-gradient-106);"/><path d="M287.05,1065.89c.08-1.48,89.68-45.86,111.59-56.7,2.39-1.18,2.96-4.33,1.15-6.29l-29.5-31.69c-2.59-2.78-6.83-3.25-9.96-1.1l-93.3,64.02c-2.53,1.73-2.98,5.29-.97,7.6l21,24.15Z" style="fill:url(#linear-gradient-107);"/></g></g></g><g><path d="M234.34,437.9v-45.77h2.39c.75,0,1.19,.38,1.31,1.15l.41,6.62c1.74-2.55,3.74-4.6,5.99-6.16,2.25-1.56,4.79-2.35,7.61-2.35,3.27,0,5.89,.97,7.86,2.9,1.97,1.93,3.3,4.62,3.99,8.05,.54-1.87,1.3-3.5,2.27-4.88,.97-1.38,2.09-2.52,3.36-3.43,1.26-.9,2.64-1.57,4.12-2,1.49-.43,3.01-.64,4.57-.64,2.22,0,4.22,.38,5.99,1.13,1.77,.75,3.27,1.86,4.5,3.33,1.23,1.47,2.18,3.28,2.84,5.43,.66,2.15,.99,4.6,.99,7.36v29.25h-4.28v-29.25c0-4.48-.95-7.89-2.84-10.23-1.89-2.35-4.59-3.52-8.11-3.52-1.56,0-3.06,.29-4.48,.87-1.43,.58-2.69,1.45-3.78,2.6-1.1,1.15-1.97,2.58-2.61,4.3-.65,1.72-.97,3.71-.97,5.98v29.25h-4.32v-29.25c0-4.45-.86-7.85-2.59-10.21-1.73-2.36-4.26-3.54-7.59-3.54-2.43,0-4.68,.74-6.76,2.21-2.07,1.47-3.92,3.51-5.54,6.12v34.68h-4.32Z" style="fill:#163452;"/><path d="M342.11,392.14l-25.76,60.49c-.18,.43-.41,.78-.7,1.06-.29,.28-.7,.41-1.24,.41h-3.06l7.88-17.89-18.96-44.07h3.56c.45,0,.81,.12,1.08,.35,.27,.23,.45,.48,.54,.76l15.09,35.6c.18,.46,.34,.93,.47,1.4,.14,.48,.26,.96,.38,1.45,.15-.49,.31-.97,.47-1.45,.16-.47,.34-.94,.52-1.4l14.91-35.6c.15-.34,.36-.61,.63-.81,.27-.2,.57-.3,.9-.3h3.29Z" style="fill:#163452;"/><path d="M364.59,438.64c-4.02,0-7.11-1.16-9.25-3.47-2.15-2.32-3.22-5.51-3.22-9.59v-26.36h-4.73c-.6,0-1.11-.2-1.53-.6-.42-.4-.63-1-.63-1.79v-4.51l7.43-1.24,2.34-12.88c.15-.61,.43-1.09,.86-1.43,.42-.34,.96-.51,1.62-.51h5.76v14.86h12.34v8.1h-12.34v25.57c0,1.47,.35,2.62,1.06,3.45,.7,.83,1.67,1.24,2.9,1.24,.69,0,1.27-.08,1.73-.25,.47-.17,.87-.35,1.22-.53,.34-.18,.65-.36,.92-.53,.27-.17,.54-.25,.81-.25,.33,0,.6,.09,.81,.25,.21,.17,.44,.42,.68,.76l3.33,5.52c-1.62,1.38-3.48,2.42-5.58,3.13-2.1,.7-4.28,1.06-6.53,1.06Z" style="fill:#2473a5;"/><path d="M422.51,390.71v47.19h-6.8c-1.47,0-2.4-.69-2.79-2.07l-.77-3.77c-1.89,1.96-3.98,3.55-6.26,4.76-2.28,1.21-4.97,1.82-8.06,1.82-2.52,0-4.75-.44-6.69-1.31-1.94-.87-3.57-2.11-4.89-3.7-1.32-1.59-2.32-3.49-2.99-5.68-.68-2.19-1.01-4.61-1.01-7.24v-29.99h11.12v29.99c0,2.88,.65,5.11,1.96,6.69,1.31,1.58,3.26,2.37,5.88,2.37,1.92,0,3.72-.44,5.4-1.31,1.68-.87,3.27-2.08,4.77-3.61v-34.13h11.12Z" style="fill:#2473a5;"/><path d="M443.99,398.9c1.44-2.82,3.15-5.04,5.13-6.65,1.98-1.61,4.32-2.42,7.03-2.42,2.13,0,3.84,.48,5.13,1.43l-.72,8.51c-.15,.55-.37,.94-.65,1.17-.29,.23-.67,.35-1.15,.35-.45,0-1.12-.08-2-.23-.89-.15-1.75-.23-2.59-.23-1.23,0-2.33,.18-3.29,.55-.96,.37-1.82,.9-2.59,1.59s-1.44,1.53-2.03,2.51c-.59,.98-1.13,2.1-1.64,3.36v29.07h-11.12v-47.19h6.53c1.14,0,1.94,.21,2.39,.62,.45,.41,.75,1.16,.9,2.23l.68,5.34Z" style="fill:#2473a5;"/><path d="M477.5,396.51c.93-.95,1.91-1.83,2.95-2.64,1.04-.81,2.13-1.5,3.29-2.07,1.16-.57,2.39-1.01,3.72-1.33,1.32-.32,2.76-.48,4.32-.48,2.52,0,4.76,.44,6.71,1.31,1.95,.87,3.58,2.1,4.89,3.68,1.31,1.58,2.3,3.47,2.97,5.66,.68,2.19,1.01,4.61,1.01,7.24v30.04h-11.12v-30.04c0-2.88-.65-5.11-1.94-6.69-1.29-1.58-3.26-2.37-5.9-2.37-1.92,0-3.72,.45-5.4,1.33-1.68,.89-3.27,2.1-4.77,3.63v34.13h-11.12v-47.19h6.8c1.44,0,2.39,.69,2.84,2.07l.77,3.73Z" style="fill:#2473a5;"/></g><path d="M201.49,388.74h-32.24l32.24,32.93v-32.93Z" style="fill:#3182ae;"/><path d="M169.25,388.74v32.93h32.24l-32.24-32.93Z" style="fill:#2c81a4;"/><path d="M201.49,421.66h-32.24l32.24,32.93v-32.93Z" style="fill:#217e9b;"/><path d="M169.25,421.66v32.93h32.24l-32.24-32.93Z" style="fill:#15778e;"/><path d="M169.25,454.59v32.93s32.24-32.93,32.24-32.93h-32.24Z" style="fill:#11587d;"/><path d="M169.25,355.81h32.24s0-32.93,0-32.93l-32.24,32.93Z" style="fill:#4d8ecb;"/><path d="M169.25,388.74h32.24v-32.93l-32.24,32.93Z" style="fill:#3a87bc;"/><path d="M169.25,355.81v32.93l32.24-32.93h-32.24Z" style="fill:#478cc3;"/><path d="M137.01,454.59h32.24v-32.93s-32.24,32.93-32.24,32.93Z" style="fill:#217e9b;"/><path d="M137.01,487.52v32.93l32.24-32.93h-32.24Z" style="fill:#163452;"/><path d="M169.25,454.59h-32.24l32.24,32.93v-32.93Z" style="fill:#1b6790;"/><path d="M137.01,454.59v32.93h32.24l-32.24-32.93Z" style="fill:#1c5d7e;"/><path d="M104.77,421.66v32.93h32.24l-32.24-32.93Z" style="fill:#3b89c4;"/><path d="M137.01,454.59h-32.24l32.24,32.93v-32.93Z" style="fill:#2473a5;"/><path d="M104.77,454.59v32.93h32.24l-32.24-32.93Z" style="fill:#2678ad;"/><path d="M137.01,487.52h-32.24l32.24,32.93v-32.93Z" style="fill:#1d4b70;"/><path d="M104.77,388.74h-32.24l32.24,32.93v-32.93Z" style="fill:#65a6d0;"/><path d="M72.53,388.74v32.93h32.24l-32.24-32.93Z" style="fill:#5a9dce;"/><path d="M104.77,421.66h-32.24l32.24,32.93v-32.93Z" style="fill:#4a94ca;"/><path d="M72.53,421.66v32.93h32.24l-32.24-32.93Z" style="fill:#4a94ca;"/><path d="M104.77,454.59h-32.24l32.24,32.93v-32.93Z" style="fill:#3b89c4;"/><path d="M72.53,388.74h32.24v-32.93l-32.24,32.93Z" style="fill:#7eb4d8;"/></svg>