<?xml version="1.0" encoding="UTF-8"?><svg id="Layer_1" xmlns="http://www.w3.org/2000/svg" xmlns:xlink="http://www.w3.org/1999/xlink" viewBox="0 0 710.76 327.53"><defs><clipPath id="clippath"><rect x="328.67" y="250.38" width="382.09" height="56.92" style="fill:none;"/></clipPath></defs><g><path d="M260.72,181.46V109.25h3.85c1.21,0,1.91,.6,2.1,1.81l.65,10.45c2.81-4.02,6.02-7.26,9.65-9.72,3.63-2.47,7.72-3.7,12.26-3.7,5.27,0,9.49,1.52,12.66,4.57,3.17,3.05,5.31,7.28,6.42,12.7,.87-2.95,2.09-5.52,3.67-7.69,1.57-2.18,3.37-3.98,5.41-5.41,2.03-1.43,4.25-2.48,6.64-3.16,2.4-.68,4.85-1.02,7.37-1.02,3.58,0,6.8,.59,9.65,1.78,2.85,1.19,5.27,2.94,7.26,5.26,1.98,2.32,3.51,5.18,4.57,8.56,1.06,3.39,1.6,7.26,1.6,11.61v46.15h-6.89v-46.15c0-7.06-1.52-12.45-4.57-16.15-3.05-3.7-7.4-5.55-13.06-5.55-2.52,0-4.92,.46-7.22,1.38-2.3,.92-4.33,2.29-6.1,4.1-1.77,1.81-3.17,4.08-4.21,6.79-1.04,2.71-1.56,5.85-1.56,9.43v46.15h-6.97v-46.15c0-7.01-1.39-12.39-4.17-16.11-2.78-3.72-6.86-5.59-12.23-5.59-3.92,0-7.55,1.16-10.89,3.48-3.34,2.32-6.31,5.54-8.93,9.65v54.72h-6.97Z" style="fill:#173452;"/><path d="M434.37,109.25l-41.51,95.43c-.29,.68-.67,1.23-1.12,1.67-.46,.44-1.12,.65-2,.65h-4.93l12.7-28.23-30.55-69.52h5.73c.72,0,1.31,.18,1.74,.54,.44,.36,.73,.76,.87,1.2l24.31,56.17c.29,.73,.54,1.46,.76,2.21,.22,.75,.42,1.51,.62,2.29,.24-.77,.5-1.54,.76-2.29,.27-.75,.54-1.49,.84-2.21l24.02-56.17c.24-.53,.58-.96,1.02-1.27,.44-.31,.92-.47,1.45-.47h5.3Z" style="fill:#173452;"/><path d="M470.58,182.62c-6.48,0-11.45-1.83-14.91-5.48-3.46-3.65-5.19-8.7-5.19-15.13v-41.58h-7.62c-.97,0-1.79-.31-2.47-.94-.68-.63-1.02-1.57-1.02-2.83v-7.11l11.97-1.96,3.77-20.32c.24-.97,.7-1.72,1.38-2.25,.68-.53,1.55-.8,2.61-.8h9.29v23.44h19.88v12.77h-19.88v40.35c0,2.32,.57,4.14,1.71,5.44,1.14,1.31,2.7,1.96,4.68,1.96,1.11,0,2.04-.13,2.79-.4,.75-.27,1.4-.54,1.96-.83,.56-.29,1.05-.57,1.49-.83,.44-.27,.87-.4,1.31-.4,.53,0,.97,.13,1.31,.4,.34,.27,.7,.67,1.09,1.2l5.37,8.71c-2.61,2.18-5.61,3.82-9,4.93-3.39,1.11-6.89,1.67-10.52,1.67Z" style="fill:#2573a6;"/><path d="M563.9,107v74.46h-10.96c-2.37,0-3.87-1.09-4.5-3.27l-1.23-5.95c-3.05,3.1-6.41,5.6-10.09,7.51-3.68,1.91-8.01,2.87-12.99,2.87-4.06,0-7.66-.69-10.78-2.07-3.12-1.38-5.75-3.33-7.87-5.84-2.13-2.52-3.74-5.5-4.83-8.96-1.09-3.46-1.63-7.27-1.63-11.43v-47.31h17.92v47.31c0,4.55,1.05,8.07,3.16,10.56,2.1,2.49,5.26,3.74,9.47,3.74,3.1,0,6-.69,8.71-2.07,2.71-1.38,5.27-3.28,7.69-5.7v-53.85h17.92Z" style="fill:#2573a6;"/><path d="M598.52,119.92c2.32-4.45,5.08-7.95,8.27-10.49,3.19-2.54,6.97-3.81,11.32-3.81,3.43,0,6.19,.75,8.27,2.25l-1.16,13.43c-.24,.87-.59,1.49-1.05,1.85-.46,.36-1.08,.54-1.85,.54-.73,0-1.8-.12-3.23-.36-1.43-.24-2.82-.36-4.17-.36-1.98,0-3.75,.29-5.3,.87-1.55,.58-2.94,1.41-4.17,2.5s-2.32,2.41-3.27,3.96c-.94,1.55-1.83,3.31-2.65,5.3v45.86h-17.92V107h10.52c1.84,0,3.12,.33,3.85,.98,.73,.65,1.21,1.83,1.45,3.52l1.09,8.42Z" style="fill:#2573a6;"/><path d="M652.51,116.15c1.5-1.5,3.08-2.89,4.75-4.17,1.67-1.28,3.43-2.37,5.3-3.27,1.86-.89,3.86-1.6,5.99-2.1,2.13-.51,4.45-.76,6.97-.76,4.06,0,7.67,.69,10.81,2.07,3.14,1.38,5.77,3.31,7.87,5.8,2.1,2.49,3.7,5.47,4.79,8.93,1.09,3.46,1.63,7.27,1.63,11.43v47.39h-17.92v-47.39c0-4.55-1.04-8.07-3.12-10.56-2.08-2.49-5.25-3.74-9.51-3.74-3.1,0-6,.7-8.71,2.1-2.71,1.4-5.27,3.31-7.69,5.73v53.85h-17.92V107h10.96c2.32,0,3.85,1.09,4.57,3.27l1.23,5.88Z" style="fill:#2573a6;"/></g><path d="M207.78,103.89h-51.95l51.95,51.95v-51.95Z" style="fill:#3183af;"/><path d="M155.84,103.89v51.95h51.95l-51.95-51.95Z" style="fill:#2d81a5;"/><path d="M207.78,155.84h-51.95l51.95,51.95v-51.95Z" style="fill:#217e9c;"/><path d="M155.84,155.84v51.95h51.95l-51.95-51.95Z" style="fill:#17778f;"/><path d="M155.84,207.78v51.95s51.95-51.95,51.95-51.95h-51.95Z" style="fill:#13587d;"/><path d="M155.84,51.95h51.95s0-51.95,0-51.95l-51.95,51.95Z" style="fill:#4c8fcc;"/><path d="M155.84,103.89h51.95V51.95l-51.95,51.95Z" style="fill:#3988bc;"/><path d="M155.84,51.95v51.95l51.95-51.95h-51.95Z" style="fill:#488cc4;"/><path d="M103.89,207.78h51.95v-51.95s-51.95,51.95-51.95,51.95Z" style="fill:#217e9c;"/><path d="M103.89,259.73v51.95l51.95-51.95h-51.95Z" style="fill:#173452;"/><path d="M155.84,207.78h-51.95l51.95,51.95v-51.95Z" style="fill:#1c6791;"/><path d="M103.89,207.78v51.95h51.95l-51.95-51.95Z" style="fill:#1d5d7e;"/><path d="M51.95,155.84v51.95h51.95l-51.95-51.95Z" style="fill:#3c8ac6;"/><path d="M103.89,207.78H51.95l51.95,51.95v-51.95Z" style="fill:#2573a6;"/><path d="M51.95,207.78v51.95h51.95l-51.95-51.95Z" style="fill:#2778ae;"/><path d="M103.89,259.73H51.95l51.95,51.95v-51.95Z" style="fill:#1d4b6f;"/><path d="M51.95,103.89H0l51.95,51.95v-51.95Z" style="fill:#65a7d0;"/><path d="M0,103.89v51.95H51.95L0,103.89Z" style="fill:#5a9ed0;"/><path d="M51.95,155.84H0l51.95,51.95v-51.95Z" style="fill:#4b95cb;"/><path d="M0,155.84v51.95H51.95L0,155.84Z" style="fill:#4b95cb;"/><path d="M51.95,207.78H0l51.95,51.95v-51.95Z" style="fill:#3c8ac6;"/><path d="M0,103.89H51.95V51.95L0,103.89Z" style="fill:#7db4d8;"/><g id="layer1"><g id="g2993"><path id="path2995" d="M440.56,275.22h-9.95v-10.1h9.95v10.1Z" style="fill:#ee7103; fill-rule:evenodd;"/><path id="path2997" d="M453.41,275.22h-9.95v-10.1h9.95v10.1Z" style="fill:#ee7103; fill-rule:evenodd;"/><path id="path2999" d="M466.25,275.22h-9.95v-10.1h9.95v10.1Z" style="fill:#ee7103; fill-rule:evenodd;"/><path id="path3001" d="M466.25,288.25h-9.95v-10.1h9.95v10.1Z" style="fill:#ee7103; fill-rule:evenodd;"/><path id="path3003" d="M466.25,301.37h-9.95v-10.12h9.95v10.12Z" style="fill:#ee7103; fill-rule:evenodd;"/><path id="path3005" d="M440.56,288.25h-9.95v-10.1h9.95v10.1Z" style="fill:#ee7103; fill-rule:evenodd;"/><path id="path3007" d="M453.41,288.25h-9.95v-10.1h9.95v10.1Z" style="fill:#006570; fill-rule:evenodd;"/><path id="path3009" d="M440.56,301.37h-9.95v-10.12h9.95v10.12Z" style="fill:#ee7103; fill-rule:evenodd;"/><path id="path3011" d="M453.41,301.37h-9.95v-10.12h9.95v10.12Z" style="fill:#ee7103; fill-rule:evenodd;"/><g id="g3013"><g style="clip-path:url(#clippath);"><g id="g3015"><g id="g3021"><path id="path3023" d="M641.06,283.33c.04,2.53-.19,5.07-.67,7.55-.38,2.21-1.32,4.28-2.75,6-1.35,1.58-3.34,2.4-5.94,2.45-2.57-.06-4.54-.87-5.92-2.44-1.45-1.7-2.43-3.76-2.85-5.98-.52-2.49-.77-5.04-.73-7.59-.03-2.57,.2-5.13,.68-7.65,.4-2.28,1.36-4.42,2.8-6.22,1.37-1.65,3.38-2.5,6.01-2.57,2.6,.07,4.59,.91,5.94,2.57,1.42,1.8,2.37,3.94,2.75,6.22,.48,2.52,.71,5.08,.67,7.65m3.56-.07c.04-5.46-.95-9.91-2.99-13.37-2.03-3.46-5.39-5.23-10.06-5.33-4.58,.11-7.89,1.89-9.92,5.34-2.04,3.45-3.03,7.91-2.99,13.37-.05,3.22,.39,6.42,1.3,9.5,.88,2.79,2.28,5.02,4.2,6.64,1.92,1.63,4.44,2.46,7.55,2.53,3.06-.05,5.55-.87,7.45-2.53,1.9-1.65,3.29-3.85,4.17-6.64,.92-3.08,1.36-6.29,1.3-9.5" style="fill:#006570; fill-rule:evenodd;"/></g><g id="g3025"><path id="path3027" d="M496.13,291.64c.07-2.12-.53-4.21-1.73-5.94-1.22-1.84-3.54-3.4-6.96-4.7-1.72-.56-3.32-1.45-4.7-2.63-1.22-1.08-1.84-2.62-1.88-4.59-.04-1.74,.58-3.42,1.74-4.7,1.16-1.27,2.87-1.93,5.12-1.99,1.31,0,2.61,.26,3.82,.77,.85,.35,1.65,.81,2.38,1.37l1.07-2.34c-.92-.71-1.94-1.26-3.04-1.63-1.42-.51-2.92-.76-4.43-.76-3.08,.07-5.49,1-7.26,2.79-1.73,1.71-2.71,4.05-2.69,6.5-.07,1.94,.47,3.85,1.55,5.45,1.13,1.76,3.42,3.31,6.89,4.65,2.14,.76,3.79,1.71,4.9,2.85s1.69,2.78,1.7,4.91c.03,1.97-.75,3.86-2.14,5.23-1.39,1.36-3.25,2.07-5.59,2.12-1.5,.01-3-.21-4.44-.66-1.02-.31-1.97-.81-2.8-1.48l-1.07,2.53c1.08,.79,2.3,1.38,3.58,1.73,1.6,.46,3.25,.68,4.91,.68,3.34-.11,6.01-1.18,8.01-3.2,2-2.01,3.01-4.34,3.07-6.95" style="fill:#006570; fill-rule:evenodd;"/></g><g id="g3029"><path id="path3031" d="M525.66,283.33c.04,2.53-.19,5.07-.67,7.55-.38,2.21-1.32,4.28-2.74,6-1.35,1.58-3.34,2.39-5.95,2.45-2.57-.06-4.54-.87-5.92-2.44-1.45-1.71-2.43-3.77-2.85-5.98-.52-2.49-.77-5.04-.73-7.59-.04-2.57,.2-5.13,.69-7.65,.39-2.28,1.35-4.43,2.79-6.22,1.38-1.65,3.38-2.5,6.01-2.57,2.61,.07,4.59,.91,5.95,2.57,1.42,1.8,2.37,3.95,2.74,6.22,.48,2.52,.7,5.08,.67,7.65m3.56-.07c.04-5.46-.96-9.91-2.99-13.37-2.03-3.46-5.38-5.23-10.05-5.33-4.58,.11-7.89,1.89-9.93,5.34-2.04,3.45-3.03,7.91-3,13.37-.06,3.22,.38,6.42,1.3,9.5,.88,2.79,2.28,5.02,4.21,6.64,1.92,1.63,4.44,2.46,7.54,2.53,3.06-.05,5.55-.87,7.45-2.53s3.29-3.85,4.16-6.64c.92-3.08,1.36-6.29,1.3-9.5" style="fill:#006570; fill-rule:evenodd;"/></g><path id="path3033" d="M541.81,255.04h-3.13v46.21h3.13v-46.21Z" style="fill:#006570; fill-rule:evenodd;"/><g id="g3035"><path id="path3037" d="M575.56,299.05v-33.82h-3.56v32.35c-1,.6-2.08,1.04-3.21,1.3-1.37,.31-2.76,.46-4.16,.44-2.83-.05-4.92-.87-6.28-2.48s-2.04-3.7-2.03-6.28v-25.33h-3.56v25.47c-.04,3.31,.82,6,2.6,8.08,1.77,2.08,4.73,3.15,8.87,3.21,2.29,.02,4.57-.29,6.77-.92,1.6-.45,3.13-1.13,4.55-2.02" style="fill:#006570; fill-rule:evenodd;"/></g><g id="g3039"><path id="path3041" d="M597.77,301.12v-2.33c-.24,.07-.5,.11-.75,.12h-.71c-1.86-.06-3.21-.63-3.98-1.74-.81-1.15-1.22-2.54-1.16-3.95v-25.92h6.59v-2.07h-6.58v-9.96l-3.54,1.34v8.62h-4.16v2.13h4.16v25.68c-.06,2.02,.54,4.01,1.69,5.66,1.18,1.73,3.25,2.64,6.2,2.75,.76,.02,1.52-.09,2.24-.33" style="fill:#006570; fill-rule:evenodd;"/></g><path id="path3043" d="M609.45,265.23h-3.56v36.03h3.56v-36.03Zm.59-8.07c0-.64-.26-1.25-.71-1.7-.93-.94-2.43-.94-3.36,0-.92,.94-.92,2.46,0,3.41,.93,.93,2.43,.93,3.36,0,.45-.45,.71-1.06,.71-1.71" style="fill:#006570; fill-rule:evenodd;"/><g id="g3045"><path id="path3047" d="M676.86,301.25v-26.4c.02-1.59-.31-3.17-.95-4.63-.74-1.66-1.97-3.05-3.52-3.97-1.68-1.08-4.03-1.64-7.05-1.68-2.32-.03-4.63,.2-6.9,.66-1.77,.38-3.49,1.01-5.09,1.87v34.16h3.56v-32.78c1.06-.48,2.16-.84,3.29-1.08,1.53-.29,3.08-.42,4.63-.39,3.43,.11,5.74,.98,6.9,2.62,1.13,1.57,1.7,3.48,1.6,5.42v26.21h3.53Z" style="fill:#006570; fill-rule:evenodd;"/></g><g id="g3049"><path id="path3051" d="M704.34,291.64c.08-2.12-.53-4.21-1.73-5.94-1.23-1.84-3.55-3.4-6.96-4.7-1.73-.55-3.33-1.45-4.71-2.64-1.21-1.08-1.85-2.62-1.89-4.59-.04-1.74,.59-3.42,1.75-4.7,1.16-1.27,2.86-1.93,5.12-1.99,1.31,0,2.61,.26,3.82,.77,.85,.35,1.64,.81,2.37,1.37l1.07-2.34c-.91-.71-1.94-1.26-3.03-1.63-1.42-.5-2.92-.76-4.43-.75-3.07,.07-5.48,1-7.24,2.79-1.74,1.7-2.71,4.05-2.7,6.5-.07,1.94,.47,3.85,1.55,5.45,1.13,1.75,3.43,3.29,6.89,4.63,2.14,.76,3.78,1.71,4.9,2.85s1.69,2.78,1.69,4.91c.03,1.97-.75,3.86-2.14,5.23-1.38,1.36-3.25,2.07-5.59,2.12-1.49,0-2.98-.22-4.41-.66-1.02-.31-1.97-.81-2.81-1.48l-1.07,2.53c1.08,.79,2.28,1.37,3.56,1.73,1.6,.46,3.25,.68,4.92,.68,3.35-.11,6.02-1.18,8.01-3.2,2-2.01,3.01-4.34,3.06-6.95" style="fill:#006570; fill-rule:evenodd;"/></g><g id="g3053"><path id="path3055" d="M364.94,301.29v-36.1h-2.48v28.59c0,1.25,.05,2.26,.1,3.02s.1,1.16,.11,1.17h-.16s-.19-.4-.56-1.13-.89-1.71-1.56-2.89l-16.41-28.76h-3.77v36.1h2.49v-29.27c0-1.26-.03-2.36-.07-3.3s-.07-1.45-.08-1.49h.1s.26,.52,.71,1.45,1.05,2.01,1.78,3.29l16.8,29.32h2.99Z" style="fill:#006570; fill-rule:evenodd;"/></g><g id="g3057"><path id="path3059" d="M394.34,267.23v-2.04h-17.94v2.04h7.48v34.05h2.94v-34.05h7.52Z" style="fill:#006570; fill-rule:evenodd;"/></g><g id="g3061"><path id="path3063" d="M412.81,268.39s-1.14,2.2-2.69,4.92l-9.8,17.21h12.54v-16.95c0-2.83,.05-5.18,.05-5.18h-.1Zm2.53,24.03v8.74h-2.49v-8.74h-14.7v-2.1l14.66-25.18h2.53v25.38h2.99v1.89h-2.99Z" style="fill:#ee7103;"/></g></g></g></g></g></g><g><path d="M169.7,292.59c0-1.67-.05-3.01-.1-4.25h1.9l.1,2.23h.05c.87-1.59,2.24-2.53,4.14-2.53,2.82,0,4.94,2.66,4.94,6.62,0,4.68-2.55,7-5.3,7-1.54,0-2.89-.75-3.59-2.05h-.05v7.08h-2.09v-14.1Zm2.09,3.47c0,.35,.05,.67,.1,.97,.39,1.64,1.66,2.77,3.18,2.77,2.24,0,3.54-2.04,3.54-5.03,0-2.61-1.23-4.84-3.47-4.84-1.44,0-2.79,1.16-3.2,2.93-.07,.3-.14,.65-.14,.97v2.23Z" style="fill:#1d1d1b;"/><path d="M193.95,294.74c0,4.82-2.99,6.92-5.8,6.92-3.15,0-5.59-2.58-5.59-6.7,0-4.36,2.55-6.92,5.78-6.92s5.61,2.72,5.61,6.7Zm-9.25,.13c0,2.85,1.47,5.01,3.54,5.01s3.54-2.13,3.54-5.06c0-2.21-.99-5.01-3.49-5.01s-3.59,2.58-3.59,5.06Z" style="fill:#1d1d1b;"/><path d="M197.3,288.34l1.54,6.62c.34,1.45,.65,2.8,.87,4.15h.07c.26-1.32,.65-2.72,1.04-4.12l1.9-6.65h1.78l1.81,6.51c.43,1.56,.77,2.93,1.04,4.25h.07c.19-1.32,.51-2.69,.89-4.23l1.66-6.54h2.09l-3.76,13.03h-1.93l-1.78-6.22c-.41-1.45-.75-2.75-1.04-4.28h-.05c-.29,1.56-.65,2.91-1.06,4.31l-1.88,6.19h-1.93l-3.52-13.03h2.17Z" style="fill:#1d1d1b;"/><path d="M215.12,295.28c.05,3.2,1.88,4.52,4,4.52,1.52,0,2.43-.3,3.23-.67l.36,1.7c-.75,.38-2.02,.81-3.88,.81-3.59,0-5.73-2.64-5.73-6.57s2.07-7.02,5.47-7.02c3.8,0,4.82,3.74,4.82,6.14,0,.48-.05,.86-.07,1.1h-8.19Zm6.21-1.7c.02-1.51-.55-3.85-2.94-3.85-2.14,0-3.08,2.21-3.25,3.85h6.19Z" style="fill:#1d1d1b;"/><path d="M226.01,292.4c0-1.53-.02-2.85-.1-4.06h1.85l.07,2.56h.1c.53-1.75,1.81-2.85,3.23-2.85,.24,0,.41,.03,.6,.08v2.23c-.22-.05-.43-.08-.72-.08-1.49,0-2.55,1.27-2.84,3.04-.05,.32-.1,.7-.1,1.1v6.94h-2.09v-8.96Z" style="fill:#1d1d1b;"/><path d="M234.82,295.28c.05,3.2,1.88,4.52,4,4.52,1.52,0,2.43-.3,3.23-.67l.36,1.7c-.75,.38-2.02,.81-3.88,.81-3.59,0-5.73-2.64-5.73-6.57s2.07-7.02,5.47-7.02c3.8,0,4.82,3.74,4.82,6.14,0,.48-.05,.86-.07,1.1h-8.19Zm6.21-1.7c.02-1.51-.55-3.85-2.94-3.85-2.14,0-3.08,2.21-3.25,3.85h6.19Z" style="fill:#1d1d1b;"/><path d="M255.78,282.26v15.75c0,1.16,.02,2.48,.1,3.36h-1.9l-.1-2.26h-.05c-.65,1.45-2.07,2.56-3.97,2.56-2.82,0-4.98-2.66-4.98-6.62-.02-4.33,2.38-7,5.23-7,1.78,0,2.99,.94,3.52,1.99h.05v-7.78h2.12Zm-2.12,11.39c0-.3-.02-.7-.1-1-.31-1.51-1.47-2.75-3.06-2.75-2.19,0-3.49,2.15-3.49,5.03,0,2.64,1.16,4.82,3.44,4.82,1.42,0,2.72-1.05,3.11-2.83,.07-.32,.1-.65,.1-1.02v-2.26Z" style="fill:#1d1d1b;"/><path d="M264.3,301.37c.05-.89,.1-2.21,.1-3.36v-15.75h2.09v8.18h.05c.75-1.45,2.09-2.4,3.97-2.4,2.89,0,4.94,2.69,4.91,6.65,0,4.66-2.62,6.97-5.23,6.97-1.69,0-3.03-.73-3.9-2.45h-.07l-.1,2.15h-1.83Zm2.19-5.22c0,.3,.05,.59,.1,.86,.41,1.64,1.64,2.77,3.18,2.77,2.21,0,3.54-2.02,3.54-5.01,0-2.61-1.2-4.84-3.47-4.84-1.44,0-2.79,1.1-3.23,2.91-.05,.27-.12,.59-.12,.97v2.34Z" style="fill:#1d1d1b;"/><path d="M278.71,288.34l2.55,7.7c.26,.86,.55,1.88,.75,2.66h.05c.22-.78,.46-1.78,.75-2.72l2.31-7.64h2.24l-3.18,9.29c-1.52,4.47-2.55,6.76-4,8.16-1.04,1.02-2.07,1.43-2.6,1.53l-.53-1.99c.53-.19,1.23-.57,1.85-1.16,.58-.51,1.3-1.43,1.78-2.64,.1-.24,.17-.43,.17-.56s-.05-.32-.14-.62l-4.31-12h2.31Z" style="fill:#1d1d1b;"/></g><g><path d="M347.95,322.96c0,.09-.02,.17-.05,.23s-.08,.11-.14,.15c-.06,.04-.12,.06-.19,.08-.07,.01-.13,.02-.19,.02h-.25c-.13,0-.25-.01-.36-.04-.11-.02-.21-.07-.32-.13-.1-.06-.2-.15-.31-.25-.1-.11-.22-.24-.34-.41l-4.52-6.07c-.22-.3-.45-.6-.68-.91-.23-.31-.44-.62-.65-.91h-.01c0,.37,.01,.74,.01,1.12v7.42s-.01,.06-.03,.08c-.02,.03-.05,.04-.1,.06-.05,.02-.11,.03-.18,.04-.08,0-.17,.01-.29,.01-.11,0-.21,0-.29-.01-.08-.01-.14-.02-.19-.04-.05-.01-.08-.03-.1-.06-.02-.03-.03-.05-.03-.08v-9.09c0-.18,.06-.3,.19-.37s.25-.1,.37-.1h.5c.16,0,.29,.01,.4,.03,.11,.02,.2,.05,.29,.1,.09,.05,.17,.12,.25,.2,.08,.09,.17,.2,.27,.33l3.46,4.65c.22,.29,.42,.57,.62,.84,.19,.27,.38,.53,.57,.79,.18,.26,.37,.51,.55,.76,.18,.25,.36,.5,.54,.76h0c0-.42,0-.86,0-1.31v-6.97s0-.06,.03-.08c.02-.02,.05-.05,.1-.06s.11-.03,.18-.04c.08,0,.17-.01,.29-.01,.11,0,.2,0,.28,.01,.08,0,.14,.02,.19,.04,.05,.02,.08,.04,.1,.06,.02,.03,.03,.05,.03,.08v9.09Z" style="fill:#616160;"/><path d="M363.37,319.5c0,.18-.06,.3-.19,.37-.12,.07-.25,.1-.37,.1h-6.11c0,.42,.05,.8,.16,1.14,.11,.34,.29,.63,.54,.88,.25,.24,.58,.43,.98,.56s.9,.2,1.49,.2c.42,0,.79-.03,1.12-.08,.33-.05,.62-.12,.86-.18,.24-.07,.44-.13,.59-.18,.16-.06,.27-.08,.33-.08,.04,0,.08,0,.11,.02s.06,.04,.08,.07c.02,.03,.04,.07,.04,.12s.01,.11,.01,.19c0,.04,0,.07,0,.1s-.01,.06-.02,.09c0,.03-.03,.05-.04,.08-.02,.03-.05,.05-.08,.08s-.14,.07-.31,.13c-.17,.06-.4,.12-.67,.19s-.6,.12-.96,.17c-.37,.05-.76,.08-1.18,.08-.69,0-1.31-.08-1.84-.24-.53-.16-.98-.39-1.35-.7-.36-.31-.64-.69-.83-1.14-.19-.46-.28-.98-.28-1.58s.1-1.09,.29-1.55c.19-.46,.47-.84,.84-1.16,.36-.32,.8-.56,1.31-.73s1.08-.25,1.71-.25c.67,0,1.25,.09,1.72,.26s.87,.4,1.17,.69c.31,.29,.53,.62,.67,1,.14,.38,.21,.78,.21,1.2v.18Zm-1.22-.26c.02-.72-.2-1.28-.65-1.69-.46-.41-1.12-.61-1.99-.61-.45,0-.84,.06-1.18,.19s-.63,.3-.86,.51-.41,.45-.54,.73c-.13,.28-.2,.57-.22,.87h5.45Z" style="fill:#616160;"/><path d="M382.56,316.44s0,.05-.02,.09c0,.03-.02,.07-.03,.11l-2.77,6.62s-.04,.07-.07,.1c-.04,.03-.08,.04-.14,.06-.06,.01-.14,.02-.23,.03-.1,0-.21,0-.34,0-.14,0-.26,0-.36-.01-.1,0-.18-.02-.24-.03-.06-.01-.11-.04-.15-.06-.04-.02-.06-.05-.07-.09l-2.08-5.36-.02-.06-.02,.06-1.94,5.36s-.04,.07-.08,.1c-.04,.03-.09,.04-.16,.06-.07,.01-.15,.02-.25,.03s-.21,0-.34,0-.24,0-.34-.01c-.09,0-.17-.02-.23-.03-.06-.01-.11-.04-.14-.06-.03-.02-.06-.05-.07-.09l-2.75-6.62s-.04-.07-.04-.11-.01-.07-.01-.09c0-.04,0-.07,.03-.09,.02-.02,.05-.04,.1-.06,.05-.01,.11-.02,.18-.03s.16,0,.27,0c.14,0,.25,0,.34,.01,.08,0,.15,.02,.19,.03,.04,.02,.07,.04,.09,.06,.02,.02,.04,.05,.05,.09l2.37,5.93,.02,.05,.02-.05,2.15-5.93s.03-.07,.05-.09c.02-.03,.06-.04,.1-.06,.04-.01,.1-.03,.18-.03,.08,0,.17-.01,.29-.01s.21,0,.28,.01c.07,0,.13,.02,.18,.03,.05,.02,.08,.04,.1,.06,.02,.02,.04,.05,.05,.09l2.32,5.93,.02,.05v-.05s2.37-5.93,2.37-5.93c.01-.04,.03-.07,.05-.09,.02-.03,.06-.04,.1-.06,.05-.01,.11-.03,.19-.03,.08,0,.19-.01,.32-.01,.11,0,.19,0,.26,0s.12,.01,.16,.03c.04,.02,.07,.03,.08,.06,.01,.02,.02,.05,.02,.09Z" style="fill:#616160;"/><path d="M406.57,314.1c0,.07,0,.12-.02,.17-.01,.05-.03,.09-.06,.12s-.06,.06-.1,.08c-.04,.02-.08,.03-.13,.03h-3.82v8.75s0,.06-.03,.08-.05,.04-.1,.06c-.05,.02-.11,.03-.19,.04-.08,0-.17,.01-.29,.01s-.21,0-.29-.01c-.08-.01-.14-.02-.19-.04-.05-.01-.08-.03-.1-.06s-.03-.05-.03-.08v-8.75h-3.82c-.05,0-.1,0-.13-.03s-.07-.04-.09-.08-.05-.07-.06-.12c-.01-.05-.02-.11-.02-.17,0-.07,0-.13,.02-.18,.01-.05,.03-.1,.06-.13s.06-.06,.09-.08,.08-.03,.13-.03h8.85s.09,0,.13,.03c.04,.02,.07,.04,.1,.08s.05,.08,.06,.13c.01,.05,.02,.11,.02,.18Z" style="fill:#616160;"/><path d="M420.28,319.5c0,.18-.06,.3-.19,.37-.12,.07-.25,.1-.37,.1h-6.11c0,.42,.05,.8,.16,1.14,.11,.34,.29,.63,.54,.88,.25,.24,.58,.43,.98,.56s.9,.2,1.49,.2c.42,0,.79-.03,1.12-.08,.33-.05,.62-.12,.86-.18,.24-.07,.44-.13,.59-.18,.16-.06,.27-.08,.33-.08,.04,0,.08,0,.11,.02s.06,.04,.08,.07c.02,.03,.04,.07,.04,.12s.01,.11,.01,.19c0,.04,0,.07,0,.1s-.01,.06-.02,.09c0,.03-.03,.05-.04,.08-.02,.03-.05,.05-.08,.08s-.14,.07-.31,.13c-.17,.06-.4,.12-.67,.19s-.6,.12-.96,.17c-.37,.05-.76,.08-1.18,.08-.69,0-1.31-.08-1.84-.24-.53-.16-.98-.39-1.35-.7-.36-.31-.64-.69-.83-1.14-.19-.46-.28-.98-.28-1.58s.1-1.09,.29-1.55c.19-.46,.47-.84,.84-1.16,.36-.32,.8-.56,1.31-.73s1.08-.25,1.71-.25c.67,0,1.25,.09,1.72,.26s.87,.4,1.17,.69c.31,.29,.53,.62,.67,1,.14,.38,.21,.78,.21,1.2v.18Zm-1.22-.26c.02-.72-.2-1.28-.65-1.69-.46-.41-1.12-.61-1.99-.61-.45,0-.84,.06-1.18,.19s-.63,.3-.86,.51-.41,.45-.54,.73c-.12,.28-.2,.57-.22,.87h5.45Z" style="fill:#616160;"/><path d="M433.84,322.24c0,.06,0,.11,0,.16s-.02,.09-.03,.12c-.01,.04-.03,.07-.05,.09s-.08,.07-.16,.14c-.09,.07-.23,.15-.43,.25-.2,.1-.43,.19-.68,.26s-.52,.14-.81,.18c-.29,.05-.59,.07-.9,.07-.62,0-1.17-.08-1.65-.24-.48-.16-.88-.39-1.2-.7-.32-.31-.57-.69-.74-1.13-.17-.45-.25-.96-.25-1.55,0-.66,.1-1.23,.31-1.7,.21-.47,.49-.86,.86-1.16,.36-.3,.79-.52,1.27-.66,.49-.14,1-.21,1.56-.21,.3,0,.58,.02,.85,.06,.27,.04,.52,.1,.75,.17s.43,.15,.61,.24c.18,.09,.31,.17,.39,.23,.08,.06,.14,.11,.17,.14,.03,.03,.05,.07,.07,.11s.03,.08,.04,.13c0,.05,0,.1,0,.17,0,.14-.03,.25-.08,.3-.06,.06-.12,.09-.18,.09-.09,0-.21-.04-.34-.13-.13-.09-.31-.19-.52-.3-.21-.11-.47-.21-.77-.3-.3-.09-.66-.14-1.07-.14-.86,0-1.52,.25-1.99,.75-.47,.5-.7,1.22-.7,2.17,0,.48,.06,.89,.19,1.25,.12,.36,.3,.66,.54,.89,.23,.24,.52,.42,.86,.53,.34,.12,.72,.18,1.14,.18,.4,0,.75-.05,1.05-.14,.3-.1,.57-.2,.79-.32,.22-.12,.41-.22,.56-.32,.15-.1,.26-.14,.33-.14,.04,0,.07,0,.1,.03,.03,.02,.05,.05,.08,.08,.02,.04,.03,.08,.04,.13,0,.05,.01,.11,.01,.18Z" style="fill:#616160;"/><path d="M448.06,323.25s-.01,.06-.03,.08-.05,.04-.09,.06c-.04,.02-.1,.03-.18,.04-.08,0-.17,.01-.28,.01-.12,0-.22,0-.29-.01-.08-.01-.13-.02-.18-.04-.04-.01-.07-.03-.09-.06-.02-.03-.03-.05-.03-.08v-4.03c0-.42-.04-.76-.13-1.03s-.21-.49-.39-.68c-.17-.19-.39-.33-.66-.44-.27-.1-.58-.15-.94-.15-.46,0-.91,.12-1.37,.37s-.93,.61-1.44,1.08v4.87s0,.06-.03,.08c-.02,.03-.05,.04-.09,.06-.04,.02-.1,.03-.18,.04-.08,0-.17,.01-.29,.01-.11,0-.21,0-.28-.01-.08-.01-.14-.02-.18-.04-.05-.01-.08-.03-.09-.06-.02-.03-.03-.05-.03-.08v-10.12s0-.06,.03-.08c.02-.03,.05-.05,.09-.06,.05-.02,.11-.03,.18-.04,.08,0,.17-.01,.28-.01,.12,0,.22,0,.29,.01,.08,0,.13,.02,.18,.04,.04,.02,.07,.04,.09,.06,.02,.03,.03,.05,.03,.08v4.24c.49-.41,.98-.71,1.46-.91,.49-.19,.98-.29,1.47-.29,.59,0,1.08,.08,1.49,.23s.73,.35,.98,.61c.25,.25,.43,.55,.53,.89,.11,.34,.16,.75,.16,1.23v4.12Z" style="fill:#616160;"/><path d="M463.18,323.25s-.01,.06-.03,.08-.05,.04-.09,.06c-.04,.02-.1,.03-.18,.04-.08,0-.17,.01-.28,.01-.12,0-.22,0-.29-.01-.08-.01-.13-.02-.18-.04-.04-.01-.07-.03-.09-.06-.02-.03-.03-.05-.03-.08v-4.03c0-.42-.04-.76-.13-1.03s-.21-.49-.39-.68c-.17-.19-.39-.33-.66-.44-.27-.1-.58-.15-.94-.15-.46,0-.91,.12-1.37,.37s-.93,.61-1.44,1.08v4.87s0,.06-.03,.08c-.02,.03-.05,.04-.09,.06-.04,.02-.1,.03-.18,.04-.08,0-.17,.01-.29,.01-.11,0-.21,0-.28-.01-.08-.01-.14-.02-.18-.04-.05-.01-.08-.03-.09-.06-.02-.03-.03-.05-.03-.08v-6.8s0-.06,.03-.08c.02-.02,.05-.05,.09-.06s.1-.03,.17-.04c.07,0,.16-.01,.27-.01s.21,0,.28,.01c.07,0,.13,.02,.17,.04,.04,.02,.07,.04,.08,.06,.02,.03,.02,.05,.02,.08v.96c.51-.44,1.02-.75,1.51-.95s.99-.29,1.48-.29c.59,0,1.08,.08,1.49,.23s.73,.35,.98,.61c.25,.25,.43,.55,.53,.89,.11,.34,.16,.75,.16,1.23v4.12Z" style="fill:#616160;"/><path d="M478.96,319.78c0,.54-.09,1.04-.28,1.49-.18,.46-.46,.85-.83,1.19-.37,.33-.82,.6-1.37,.78-.55,.19-1.18,.28-1.91,.28s-1.31-.08-1.84-.25c-.52-.17-.96-.41-1.32-.72-.35-.31-.62-.69-.79-1.14-.18-.45-.26-.95-.26-1.51s.09-1.04,.27-1.49c.18-.46,.46-.85,.82-1.18s.82-.59,1.37-.78c.55-.19,1.19-.28,1.92-.28s1.31,.08,1.84,.25c.52,.17,.96,.4,1.31,.72,.35,.31,.61,.69,.79,1.14,.18,.45,.27,.95,.27,1.5Zm-1.25,.08c0-.39-.05-.75-.15-1.1-.1-.35-.26-.66-.5-.93-.23-.27-.54-.48-.93-.64-.39-.16-.88-.24-1.46-.24-.54,0-1,.07-1.39,.22-.39,.15-.71,.35-.96,.6-.25,.26-.43,.56-.55,.91-.12,.35-.18,.73-.18,1.13s.05,.76,.15,1.12c.1,.35,.26,.66,.5,.93,.23,.27,.54,.48,.93,.63,.39,.16,.87,.23,1.46,.23,.54,0,1-.07,1.39-.22,.39-.15,.71-.35,.96-.6,.25-.25,.43-.56,.55-.91,.12-.35,.18-.73,.18-1.14Z" style="fill:#616160;"/><path d="M487.37,323.25s0,.06-.03,.08c-.02,.03-.05,.04-.09,.06-.04,.02-.1,.03-.18,.04-.08,0-.17,.01-.29,.01-.11,0-.21,0-.28-.01-.08-.01-.14-.02-.18-.04-.05-.01-.08-.03-.09-.06-.02-.03-.03-.05-.03-.08v-10.12s0-.06,.03-.08c.02-.03,.05-.05,.09-.06,.05-.02,.11-.03,.18-.04,.08,0,.17-.01,.28-.01,.12,0,.22,0,.29,.01,.08,0,.13,.02,.18,.04,.04,.02,.07,.04,.09,.06,.02,.03,.03,.05,.03,.08v10.12Z" style="fill:#616160;"/><path d="M503.18,319.78c0,.54-.09,1.04-.28,1.49-.18,.46-.46,.85-.83,1.19-.37,.33-.82,.6-1.37,.78-.55,.19-1.18,.28-1.91,.28s-1.31-.08-1.84-.25c-.52-.17-.96-.41-1.32-.72-.35-.31-.62-.69-.79-1.14-.18-.45-.26-.95-.26-1.51s.09-1.04,.27-1.49c.18-.46,.46-.85,.82-1.18s.82-.59,1.37-.78c.55-.19,1.19-.28,1.92-.28s1.31,.08,1.84,.25c.52,.17,.96,.4,1.31,.72,.35,.31,.61,.69,.79,1.14,.18,.45,.27,.95,.27,1.5Zm-1.25,.08c0-.39-.05-.75-.15-1.1-.1-.35-.26-.66-.5-.93-.23-.27-.54-.48-.93-.64-.39-.16-.88-.24-1.46-.24-.54,0-1,.07-1.39,.22-.39,.15-.71,.35-.96,.6-.25,.26-.43,.56-.55,.91-.12,.35-.18,.73-.18,1.13s.05,.76,.15,1.12c.1,.35,.26,.66,.5,.93,.23,.27,.54,.48,.93,.63,.39,.16,.87,.23,1.46,.23,.54,0,1-.07,1.39-.22,.39-.15,.71-.35,.96-.6,.25-.25,.43-.56,.55-.91,.12-.35,.18-.73,.18-1.14Z" style="fill:#616160;"/><path d="M517.59,316.68c0,.14-.03,.24-.09,.29-.06,.05-.14,.08-.23,.08h-1.42c.28,.22,.47,.45,.58,.7,.11,.25,.16,.52,.16,.8,0,.39-.08,.73-.24,1.03-.16,.3-.39,.55-.69,.76s-.65,.37-1.06,.48c-.41,.11-.86,.17-1.36,.17-.4,0-.79-.04-1.15-.13s-.65-.19-.85-.32c-.13,.1-.24,.21-.33,.35-.09,.13-.13,.28-.13,.45,0,.19,.12,.35,.36,.48,.24,.13,.55,.2,.94,.21l2.43,.08c.41,.01,.79,.05,1.15,.13,.36,.08,.67,.19,.95,.33,.27,.15,.48,.33,.64,.54,.16,.21,.24,.47,.24,.76s-.08,.59-.24,.86c-.16,.28-.41,.52-.75,.72s-.77,.37-1.3,.5c-.53,.12-1.16,.18-1.89,.18s-1.3-.05-1.79-.14c-.49-.09-.89-.22-1.21-.38-.31-.16-.54-.35-.68-.57-.14-.22-.21-.46-.21-.71,0-.18,.03-.34,.08-.5s.13-.3,.24-.44c.11-.14,.24-.28,.41-.41,.16-.13,.35-.26,.56-.4-.34-.13-.58-.29-.74-.47s-.24-.38-.24-.59c0-.31,.08-.58,.24-.82,.16-.24,.35-.45,.57-.64-.19-.19-.34-.4-.45-.62-.11-.23-.16-.5-.16-.81,0-.38,.08-.72,.25-1.02s.39-.56,.69-.77c.29-.21,.64-.37,1.05-.48,.41-.11,.86-.17,1.35-.17,.26,0,.5,.01,.73,.03s.44,.05,.63,.09h2.64c.11,0,.19,.03,.24,.1,.05,.07,.07,.16,.07,.29Zm-1.27,7.25c0-.33-.18-.58-.53-.76-.35-.18-.83-.27-1.42-.29l-2.6-.07c-.24,.14-.43,.27-.58,.4-.15,.12-.27,.25-.36,.36-.09,.12-.15,.23-.18,.34-.03,.11-.05,.23-.05,.34,0,.37,.25,.65,.74,.84,.49,.19,1.18,.29,2.05,.29,.55,0,1.02-.04,1.39-.12,.37-.08,.67-.19,.91-.33,.23-.13,.4-.29,.5-.46,.1-.18,.15-.36,.15-.55Zm-.94-5.35c0-.51-.19-.92-.56-1.21-.37-.29-.9-.44-1.59-.44-.35,0-.66,.05-.92,.14s-.48,.21-.65,.37-.3,.33-.39,.54c-.09,.21-.13,.42-.13,.65,0,.5,.19,.9,.56,1.18,.37,.29,.9,.43,1.57,.43,.36,0,.67-.05,.94-.14,.27-.09,.49-.21,.66-.36,.17-.15,.3-.33,.39-.53,.09-.2,.13-.41,.13-.63Z" style="fill:#616160;"/><path d="M527.98,323.4l-1.25,2.55c-.03,.05-.1,.1-.21,.14-.11,.04-.27,.06-.5,.06-.12,0-.22,0-.3-.02-.08,0-.14-.03-.18-.06-.04-.03-.07-.06-.07-.11s0-.09,.04-.15l1.27-2.41c-.05-.01-.1-.04-.14-.08-.04-.04-.07-.07-.08-.11l-3.26-6.63c-.03-.07-.05-.13-.05-.17s.02-.08,.05-.1c.04-.03,.1-.04,.18-.05,.08,0,.19-.01,.33-.01s.26,0,.35,.01c.08,0,.15,.02,.2,.03,.05,.02,.09,.04,.11,.06,.02,.02,.04,.05,.06,.09l2.8,5.93h.04l2.75-5.93c.03-.07,.08-.12,.13-.14,.06-.02,.13-.04,.22-.04,.09,0,.2-.01,.34-.01s.23,0,.31,.01c.08,.01,.14,.03,.18,.05,.04,.03,.06,.06,.06,.1s-.02,.1-.05,.16l-3.35,6.81Z" style="fill:#616160;"/><path d="M551.84,313.55c0,.07,0,.13-.02,.17,0,.04-.02,.08-.04,.1-.02,.02-.04,.04-.06,.05-.02,.01-.05,.02-.08,.02-.05,0-.12-.01-.19-.04-.07-.02-.16-.05-.27-.08-.11-.03-.24-.06-.39-.08-.15-.02-.32-.04-.52-.04-.28,0-.51,.03-.7,.1-.19,.07-.35,.18-.47,.32s-.2,.34-.25,.57c-.05,.23-.07,.51-.07,.84v.8h2.2s.08,0,.12,.02c.03,.01,.06,.04,.09,.07,.03,.03,.05,.07,.06,.12,.01,.05,.02,.1,.02,.17,0,.12-.03,.22-.08,.28s-.12,.09-.21,.09h-2.2v6.2s-.01,.06-.03,.08-.05,.04-.09,.06c-.04,.02-.1,.03-.18,.04-.08,0-.17,.01-.29,.01s-.21,0-.28-.01c-.08-.01-.14-.02-.18-.04-.05-.01-.08-.03-.09-.06s-.02-.05-.02-.08v-6.2h-1.35c-.09,0-.16-.03-.21-.09s-.07-.16-.07-.28c0-.07,0-.12,.02-.17,.01-.05,.03-.09,.05-.12,.02-.03,.05-.06,.09-.07,.04-.02,.08-.02,.12-.02h1.35v-.77c0-.48,.06-.88,.17-1.22,.11-.34,.28-.61,.51-.82,.23-.21,.51-.36,.86-.46,.34-.09,.74-.14,1.2-.14,.22,0,.44,.02,.65,.05,.21,.03,.37,.07,.48,.11,.11,.04,.18,.07,.22,.1,.04,.03,.07,.06,.09,.1,.02,.04,.04,.09,.05,.14,.01,.05,.02,.11,.02,.18Z" style="fill:#616160;"/><path d="M565.77,319.78c0,.54-.09,1.04-.28,1.49-.18,.46-.46,.85-.83,1.19-.37,.33-.82,.6-1.37,.78-.55,.19-1.18,.28-1.91,.28s-1.31-.08-1.84-.25c-.52-.17-.96-.41-1.32-.72-.35-.31-.62-.69-.79-1.14-.18-.45-.26-.95-.26-1.51s.09-1.04,.27-1.49c.18-.46,.46-.85,.82-1.18s.82-.59,1.37-.78c.55-.19,1.19-.28,1.92-.28s1.31,.08,1.84,.25c.52,.17,.96,.4,1.31,.72,.35,.31,.61,.69,.79,1.14,.18,.45,.27,.95,.27,1.5Zm-1.25,.08c0-.39-.05-.75-.15-1.1-.1-.35-.26-.66-.5-.93-.23-.27-.54-.48-.93-.64-.39-.16-.88-.24-1.46-.24-.54,0-1,.07-1.39,.22-.39,.15-.71,.35-.96,.6-.25,.26-.43,.56-.55,.91-.12,.35-.18,.73-.18,1.13s.05,.76,.15,1.12c.1,.35,.26,.66,.5,.93,.23,.27,.54,.48,.93,.63,.39,.16,.87,.23,1.46,.23,.54,0,1-.07,1.39-.22,.39-.15,.71-.35,.96-.6,.25-.25,.43-.56,.55-.91,.12-.35,.18-.73,.18-1.14Z" style="fill:#616160;"/><path d="M577.97,316.8c0,.08,0,.14,0,.19s-.02,.09-.03,.13c-.02,.03-.04,.06-.06,.07-.02,.02-.05,.03-.09,.03-.06,0-.13-.01-.21-.03-.08-.02-.17-.05-.28-.07-.11-.03-.22-.05-.35-.07-.13-.02-.26-.03-.42-.03-.18,0-.35,.03-.53,.09-.17,.06-.35,.15-.54,.28s-.39,.3-.59,.51c-.21,.21-.44,.47-.69,.77v4.6s0,.06-.03,.08c-.02,.03-.05,.04-.09,.06-.04,.02-.1,.03-.18,.04-.08,0-.17,.01-.29,.01-.11,0-.21,0-.28-.01-.08-.01-.14-.02-.18-.04-.05-.01-.08-.03-.09-.06-.02-.03-.03-.05-.03-.08v-6.8s0-.06,.03-.08c.02-.02,.05-.05,.09-.06s.1-.03,.17-.04c.07,0,.16-.01,.27-.01s.21,0,.28,.01c.07,0,.13,.02,.17,.04,.04,.02,.07,.04,.08,.06,.02,.03,.02,.05,.02,.08v1.07c.26-.29,.5-.52,.71-.69,.22-.17,.43-.31,.62-.41s.39-.16,.58-.2,.38-.05,.58-.05c.09,0,.18,0,.3,.01s.23,.02,.36,.04c.13,.02,.24,.04,.35,.07,.1,.03,.17,.05,.21,.08,.04,.02,.07,.04,.08,.06,.01,.02,.03,.04,.04,.07s.02,.07,.02,.11c0,.05,0,.11,0,.18Z" style="fill:#616160;"/><path d="M600.44,320.77c0,.43-.1,.82-.31,1.16-.2,.34-.49,.63-.86,.87-.37,.24-.81,.42-1.32,.54-.51,.13-1.06,.19-1.66,.19-.41,0-.79-.03-1.16-.09s-.69-.13-.97-.21c-.28-.08-.52-.16-.72-.24-.19-.08-.33-.15-.4-.21-.07-.06-.13-.12-.16-.2-.03-.08-.05-.17-.05-.29,0-.08,0-.16,.02-.21,.01-.06,.03-.1,.05-.14,.02-.04,.05-.06,.09-.07s.07-.02,.11-.02c.09,0,.22,.04,.39,.13,.17,.09,.39,.18,.65,.29s.59,.2,.96,.29,.81,.13,1.3,.13c.4,0,.77-.04,1.11-.12,.34-.08,.63-.2,.87-.36s.43-.35,.57-.57c.13-.23,.2-.49,.2-.78s-.09-.56-.26-.77c-.17-.21-.4-.4-.68-.57-.28-.16-.6-.31-.96-.44s-.72-.27-1.09-.4c-.37-.13-.74-.28-1.09-.43s-.67-.34-.96-.54c-.28-.21-.51-.45-.68-.73-.17-.28-.26-.61-.26-1s.09-.71,.27-1.01c.18-.3,.43-.55,.75-.76,.32-.21,.71-.37,1.16-.48s.95-.17,1.49-.17c.27,0,.54,.02,.82,.06s.54,.09,.79,.15c.25,.06,.47,.13,.66,.21,.2,.08,.32,.14,.39,.19,.06,.05,.1,.08,.12,.11,.02,.02,.03,.05,.04,.09,.01,.03,.02,.08,.03,.12,0,.05,0,.11,0,.18,0,.07,0,.12-.01,.18-.01,.05-.03,.1-.04,.13-.02,.04-.04,.07-.07,.09-.03,.02-.06,.03-.1,.03-.07,0-.18-.04-.33-.11s-.33-.15-.56-.24-.49-.17-.8-.24c-.31-.07-.66-.11-1.06-.11s-.73,.04-1.02,.12c-.29,.08-.53,.19-.72,.33s-.33,.3-.43,.48c-.1,.19-.14,.38-.14,.59,0,.3,.09,.56,.26,.77,.17,.21,.4,.41,.68,.57,.28,.17,.61,.31,.97,.45,.36,.13,.73,.27,1.1,.4,.37,.13,.74,.28,1.1,.43,.36,.15,.68,.33,.96,.54,.28,.21,.51,.45,.68,.73,.17,.28,.26,.61,.26,.99Z" style="fill:#616160;"/><path d="M615.44,319.78c0,.54-.09,1.04-.28,1.49-.18,.46-.46,.85-.83,1.19-.37,.33-.82,.6-1.37,.78-.55,.19-1.18,.28-1.91,.28s-1.31-.08-1.84-.25c-.52-.17-.96-.41-1.32-.72-.35-.31-.62-.69-.79-1.14-.18-.45-.26-.95-.26-1.51s.09-1.04,.27-1.49c.18-.46,.46-.85,.82-1.18s.82-.59,1.37-.78c.55-.19,1.19-.28,1.92-.28s1.31,.08,1.84,.25c.52,.17,.96,.4,1.31,.72,.35,.31,.61,.69,.79,1.14,.18,.45,.27,.95,.27,1.5Zm-1.25,.08c0-.39-.05-.75-.15-1.1-.1-.35-.26-.66-.5-.93-.23-.27-.54-.48-.93-.64-.39-.16-.88-.24-1.46-.24-.54,0-1,.07-1.39,.22-.39,.15-.71,.35-.96,.6-.25,.26-.43,.56-.55,.91-.12,.35-.18,.73-.18,1.13s.05,.76,.15,1.12c.1,.35,.26,.66,.5,.93,.23,.27,.54,.48,.93,.63,.39,.16,.87,.23,1.46,.23,.54,0,1-.07,1.39-.22,.39-.15,.71-.35,.96-.6,.25-.25,.43-.56,.55-.91,.12-.35,.18-.73,.18-1.14Z" style="fill:#616160;"/><path d="M623.84,323.25s0,.06-.03,.08c-.02,.03-.05,.04-.09,.06-.04,.02-.1,.03-.18,.04-.08,0-.17,.01-.29,.01-.11,0-.21,0-.28-.01-.08-.01-.14-.02-.18-.04-.05-.01-.08-.03-.09-.06-.02-.03-.03-.05-.03-.08v-10.12s0-.06,.03-.08c.02-.03,.05-.05,.09-.06,.05-.02,.11-.03,.18-.04,.08,0,.17-.01,.28-.01,.12,0,.22,0,.29,.01,.08,0,.13,.02,.18,.04,.04,.02,.07,.04,.09,.06,.02,.03,.03,.05,.03,.08v10.12Z" style="fill:#616160;"/><path d="M638.95,323.25s0,.06-.02,.08c-.02,.03-.05,.04-.09,.06-.05,.02-.11,.03-.18,.04-.07,0-.16,.01-.27,.01-.12,0-.21,0-.29-.01-.07-.01-.13-.02-.17-.04-.04-.01-.07-.03-.08-.06-.02-.03-.02-.05-.02-.08v-.96c-.51,.44-1.02,.75-1.51,.95-.49,.2-.98,.29-1.47,.29-.59,0-1.08-.08-1.49-.23s-.73-.35-.97-.61c-.25-.26-.43-.56-.54-.9-.11-.34-.16-.75-.16-1.23v-4.11s0-.06,.02-.08c.02-.02,.05-.05,.09-.06,.05-.02,.11-.03,.18-.04,.08,0,.17-.01,.28-.01,.12,0,.22,0,.29,.01,.08,0,.14,.02,.18,.04,.04,.02,.07,.04,.09,.06,.02,.03,.03,.05,.03,.08v4.03c0,.42,.04,.76,.13,1.03,.09,.27,.21,.49,.39,.68,.17,.19,.39,.33,.66,.44s.58,.15,.94,.15c.46,0,.91-.12,1.36-.37s.93-.61,1.44-1.08v-4.87s0-.06,.03-.08c.02-.02,.05-.05,.09-.06s.11-.03,.18-.04c.08,0,.17-.01,.29-.01,.11,0,.21,0,.28,.01,.08,0,.13,.02,.18,.04s.07,.04,.09,.06c.02,.03,.03,.05,.03,.08v6.8Z" style="fill:#616160;"/><path d="M651.16,322.84c0,.11-.01,.19-.03,.25-.02,.07-.06,.12-.11,.15s-.12,.07-.22,.11c-.1,.03-.21,.06-.33,.08-.12,.02-.26,.04-.4,.05s-.27,.02-.41,.02c-.44,0-.82-.04-1.13-.13s-.56-.23-.76-.41c-.2-.18-.34-.41-.43-.69-.09-.28-.13-.61-.13-.99v-4.23h-1.34c-.09,0-.17-.03-.22-.09-.05-.06-.08-.16-.08-.28,0-.07,0-.12,.02-.17,.01-.05,.03-.09,.06-.12,.03-.03,.06-.06,.09-.07,.04-.02,.08-.02,.12-.02h1.34v-1.67s0-.06,.03-.08c.02-.03,.05-.05,.09-.06s.11-.03,.18-.04c.08,0,.17-.01,.28-.01,.12,0,.22,0,.29,.01,.08,0,.13,.02,.18,.04s.07,.04,.09,.06c.02,.02,.03,.05,.03,.08v1.67h2.48s.09,0,.12,.02c.04,.01,.07,.04,.09,.07,.03,.03,.05,.07,.06,.12,.01,.05,.02,.1,.02,.17,0,.12-.03,.22-.08,.28-.06,.06-.13,.09-.21,.09h-2.48v4.11c0,.52,.1,.91,.29,1.18s.55,.41,1.06,.41c.16,0,.3-.01,.43-.04,.13-.03,.24-.05,.34-.08s.18-.06,.25-.08c.07-.02,.13-.04,.18-.04,.03,0,.06,0,.09,.01,.03,.01,.05,.03,.06,.06s.03,.06,.04,.11c0,.04,.01,.1,.01,.16Z" style="fill:#616160;"/><path d="M659.45,314.16c0,.24-.06,.4-.17,.49-.11,.09-.32,.13-.61,.13s-.49-.04-.6-.12c-.11-.08-.16-.24-.16-.48s.06-.4,.17-.49c.11-.08,.32-.13,.61-.13s.49,.04,.6,.12c.11,.08,.16,.24,.16,.48Zm-.18,9.09s0,.06-.03,.08c-.02,.03-.05,.04-.09,.06-.04,.02-.1,.03-.18,.04-.08,0-.17,.01-.29,.01-.11,0-.21,0-.28-.01-.08-.01-.14-.02-.18-.04-.05-.01-.08-.03-.09-.06-.02-.03-.03-.05-.03-.08v-6.8s0-.06,.03-.08c.02-.02,.05-.05,.09-.06s.11-.03,.18-.04c.08,0,.17-.01,.28-.01,.12,0,.22,0,.29,.01,.08,0,.13,.02,.18,.04s.07,.04,.09,.06c.02,.03,.03,.05,.03,.08v6.8Z" style="fill:#616160;"/><path d="M675.08,319.78c0,.54-.09,1.04-.28,1.49-.18,.46-.46,.85-.83,1.19-.37,.33-.82,.6-1.37,.78-.55,.19-1.18,.28-1.91,.28s-1.31-.08-1.84-.25c-.52-.17-.96-.41-1.32-.72-.35-.31-.62-.69-.79-1.14-.18-.45-.26-.95-.26-1.51s.09-1.04,.27-1.49c.18-.46,.46-.85,.82-1.18s.82-.59,1.37-.78c.55-.19,1.19-.28,1.92-.28s1.31,.08,1.84,.25c.52,.17,.96,.4,1.31,.72,.35,.31,.61,.69,.79,1.14,.18,.45,.27,.95,.27,1.5Zm-1.25,.08c0-.39-.05-.75-.15-1.1-.1-.35-.26-.66-.5-.93-.23-.27-.54-.48-.93-.64-.39-.16-.88-.24-1.46-.24-.54,0-1,.07-1.39,.22-.39,.15-.71,.35-.96,.6-.25,.26-.43,.56-.55,.91-.12,.35-.18,.73-.18,1.13s.05,.76,.15,1.12c.1,.35,.26,.66,.5,.93,.23,.27,.54,.48,.93,.63,.39,.16,.87,.23,1.46,.23,.54,0,1-.07,1.39-.22,.39-.15,.71-.35,.96-.6,.25-.25,.43-.56,.55-.91,.12-.35,.18-.73,.18-1.14Z" style="fill:#616160;"/><path d="M689.58,323.25s-.01,.06-.03,.08-.05,.04-.09,.06c-.04,.02-.1,.03-.18,.04-.08,0-.17,.01-.28,.01-.12,0-.22,0-.29-.01-.08-.01-.13-.02-.18-.04-.04-.01-.07-.03-.09-.06-.02-.03-.03-.05-.03-.08v-4.03c0-.42-.04-.76-.13-1.03s-.21-.49-.39-.68c-.17-.19-.39-.33-.66-.44-.27-.1-.58-.15-.94-.15-.46,0-.91,.12-1.37,.37s-.93,.61-1.44,1.08v4.87s0,.06-.03,.08c-.02,.03-.05,.04-.09,.06-.04,.02-.1,.03-.18,.04-.08,0-.17,.01-.29,.01-.11,0-.21,0-.28-.01-.08-.01-.14-.02-.18-.04-.05-.01-.08-.03-.09-.06-.02-.03-.03-.05-.03-.08v-6.8s0-.06,.03-.08c.02-.02,.05-.05,.09-.06s.1-.03,.17-.04c.07,0,.16-.01,.27-.01s.21,0,.28,.01c.07,0,.13,.02,.17,.04,.04,.02,.07,.04,.08,.06,.02,.03,.02,.05,.02,.08v.96c.51-.44,1.02-.75,1.51-.95s.99-.29,1.48-.29c.59,0,1.08,.08,1.49,.23s.73,.35,.98,.61c.25,.25,.43,.55,.53,.89,.11,.34,.16,.75,.16,1.23v4.12Z" style="fill:#616160;"/><path d="M702.7,321.44c0,.33-.08,.62-.24,.88s-.38,.48-.68,.66c-.29,.18-.65,.32-1.05,.41-.41,.09-.86,.14-1.36,.14-.31,0-.6-.02-.88-.06-.28-.04-.53-.08-.75-.14-.22-.06-.42-.12-.57-.18-.16-.07-.27-.12-.34-.17-.07-.05-.13-.11-.16-.19-.03-.07-.05-.17-.05-.3,0-.07,0-.12,.02-.17s.03-.09,.05-.13,.05-.06,.08-.08,.07-.03,.11-.03c.07,0,.18,.04,.32,.1,.14,.07,.31,.15,.52,.23,.21,.08,.46,.16,.74,.23,.29,.07,.62,.11,1,.11,.3,0,.58-.03,.83-.08s.47-.12,.65-.23c.18-.1,.33-.23,.43-.39,.1-.16,.15-.34,.15-.55s-.07-.39-.2-.53c-.13-.14-.31-.27-.52-.38-.21-.11-.46-.2-.73-.29-.27-.08-.55-.17-.84-.26-.29-.09-.57-.18-.84-.29-.27-.11-.52-.23-.73-.38-.21-.15-.39-.33-.52-.54-.13-.21-.2-.46-.2-.76,0-.24,.06-.47,.18-.7,.12-.23,.3-.43,.55-.61,.25-.18,.56-.33,.95-.44,.39-.11,.84-.17,1.37-.17,.22,0,.45,.01,.67,.04,.22,.03,.42,.06,.6,.11s.34,.09,.47,.15c.13,.05,.23,.1,.3,.14,.07,.04,.12,.07,.14,.1s.04,.06,.05,.09c0,.03,.02,.07,.02,.11,0,.04,0,.09,0,.15s0,.11-.01,.16-.02,.09-.04,.12c-.02,.04-.04,.06-.07,.08-.03,.02-.06,.03-.1,.03-.05,0-.13-.03-.24-.08-.11-.05-.24-.12-.42-.18-.17-.07-.38-.13-.61-.18s-.51-.08-.82-.08-.58,.03-.82,.08-.43,.13-.58,.23c-.15,.1-.27,.22-.34,.35-.08,.13-.11,.28-.11,.44,0,.22,.07,.41,.2,.56,.13,.15,.31,.28,.53,.39,.22,.11,.46,.21,.74,.29,.28,.09,.56,.17,.85,.26s.57,.18,.85,.28,.52,.23,.74,.37,.39,.32,.53,.52c.13,.2,.2,.45,.2,.73Z" style="fill:#616160;"/></g></svg>